<svg id="Business_68_" xmlns="http://www.w3.org/2000/svg" width="121.784" height="126.368" viewBox="0 0 121.784 126.368">
  <g id="XMLID_12087_" transform="translate(74.226 14.561)">
    <path id="Trazado_9" data-name="Trazado 9" d="M437.48,284.633v8.943a35.029,35.029,0,0,1,13.173.452V281.436a11.148,11.148,0,0,0-11.106-11.106h-14.5v12.495h10.558A1.763,1.763,0,0,1,437.48,284.633Z" transform="translate(-425.05 -270.33)" fill="#fff"/>
  </g>
  <g id="XMLID_12088_" transform="translate(0 14.529)">
    <path id="Trazado_10" data-name="Trazado 10" d="M488.716,360.463v7.329a1.861,1.861,0,0,1-1.84,1.84H417.105a1.839,1.839,0,0,1-1.84-1.84V284.655a1.839,1.839,0,0,1,1.84-1.84h10.558V270.32h-14.5a11.147,11.147,0,0,0-11.106,11.106v89.627a11.147,11.147,0,0,0,11.106,11.106h77.648a11.147,11.147,0,0,0,11.106-11.106V360.076a36.662,36.662,0,0,1-7.813.872A49.18,49.18,0,0,1,488.716,360.463Z" transform="translate(-402.06 -270.32)" fill="#fff"/>
  </g>
  <g id="XMLID_12089_" transform="translate(30.704 0)">
    <path id="Trazado_11" data-name="Trazado 11" d="M449.8,276.894H438.691V267.66a1.861,1.861,0,0,0-1.84-1.84H424.517a1.84,1.84,0,0,0-1.84,1.84v9.234H411.57v24.15H449.8v-24.15Z" transform="translate(-411.57 -265.82)" fill="#fff"/>
  </g>
  <g id="XMLID_12104_" transform="translate(20.857 41.294)">
    <path id="Trazado_12" data-name="Trazado 12" d="M408.52,285.067a6.457,6.457,0,1,0,6.457-6.457A6.456,6.456,0,0,0,408.52,285.067Z" transform="translate(-408.52 -278.61)" fill="#fff"/>
  </g>
  <g id="XMLID_12105_" transform="translate(20.857 63.927)">
    <path id="Trazado_13" data-name="Trazado 13" d="M414.977,285.62a6.457,6.457,0,1,0,6.457,6.457A6.455,6.455,0,0,0,414.977,285.62Z" transform="translate(-408.52 -285.62)" fill="#fff"/>
  </g>
  <g id="XMLID_12117_" transform="translate(20.857 86.269)">
    <ellipse id="Elipse_5" data-name="Elipse 5" cx="6.457" cy="6.457" rx="6.457" ry="6.457" fill="#fff"/>
  </g>
  <g id="XMLID_12133_" transform="translate(62.571 41.617)">
    <g id="Grupo_7" data-name="Grupo 7">
      <path id="Trazado_14" data-name="Trazado 14" d="M451.047,278.71a29.606,29.606,0,1,0,29.607,29.607A29.625,29.625,0,0,0,451.047,278.71Zm-12.14,47.3c-1.291.42-1.065-.516-1.033-1.259.064-.743.775-10.88.775-10.88l10.88,8.1C449.561,322.006,440.489,325.461,438.907,326.009ZM451.047,320l-10.88-8.1,10.428-13.948,11.074,7.878Zm15.11-20.243-3.164,4.262-10.881-8.1,3.164-4.262a2.364,2.364,0,0,1,3.293-.484l7.1,5.3A2.365,2.365,0,0,1,466.157,299.761Z" transform="translate(-421.44 -278.71)" fill="#fff"/>
    </g>
  </g>
</svg>
