<svg id="Internet_17_" xmlns="http://www.w3.org/2000/svg" width="144.87" height="117.747" viewBox="0 0 144.87 117.747">
  <g id="XMLID_14018_" transform="translate(38.046 0)">
    <path id="XMLID_14019_" d="M443.692,273.91c-33.169,0-34.372,9.219-34.372,9.219v99.308s1.236,9.219,34.372,9.219c33.17,0,34.372-9.219,34.372-9.219V283.129C478.1,283.129,476.861,273.91,443.692,273.91Zm25.787,55.75h0v47.934H417.9V288.006h51.575Z" transform="translate(-409.32 -273.91)" fill="#fff"/>
  </g>
  <g id="XMLID_14028_" transform="translate(0 29.052)">
    <g id="XMLID_14022_" transform="translate(114.373 0)">
      <path id="XMLID_14024_" d="M446.767,304.484a23.656,23.656,0,0,0-8.251-17.938,1.9,1.9,0,0,0-2.572.1l-3.24,3.307a1.969,1.969,0,0,0-.535,1.3v.1a1.857,1.857,0,0,0,.668,1.336,15.286,15.286,0,0,1,.067,23.449,1.93,1.93,0,0,0-.668,1.369,1.729,1.729,0,0,0,.568,1.4l3.307,3.274a1.867,1.867,0,0,0,2.572.067A23.543,23.543,0,0,0,446.767,304.484Z" transform="translate(-432.17 -274.446)" fill="#fff"/>
      <path id="XMLID_14023_" d="M454.663,312.512A40.145,40.145,0,0,0,442,283.117a1.918,1.918,0,0,0-2.639.034l-3.24,3.307a1.968,1.968,0,0,0-.534,1.3v.033a1.908,1.908,0,0,0,.6,1.336,32.135,32.135,0,0,1,.134,46.631,1.856,1.856,0,0,0,0,2.672l3.307,3.274a1.876,1.876,0,0,0,2.605.034A40.362,40.362,0,0,0,454.663,312.512Z" transform="translate(-424.166 -282.607)" fill="#fff"/>
    </g>
    <g id="XMLID_14025_">
      <path id="XMLID_14027_" d="M402.68,304.257a23.656,23.656,0,0,0,8.251,17.938,1.9,1.9,0,0,0,2.572-.1l3.24-3.307a1.968,1.968,0,0,0,.534-1.3v-.1a1.856,1.856,0,0,0-.668-1.336,15.286,15.286,0,0,1-.067-23.449,1.93,1.93,0,0,0,.668-1.37,1.728,1.728,0,0,0-.568-1.4l-3.307-3.274a1.867,1.867,0,0,0-2.572-.067A23.543,23.543,0,0,0,402.68,304.257Z" transform="translate(-386.814 -274.653)" fill="#fff"/>
      <path id="XMLID_14026_" d="M397.93,312.345a40.145,40.145,0,0,0,12.66,29.395,1.918,1.918,0,0,0,2.639-.033l3.24-3.307a1.968,1.968,0,0,0,.534-1.3v-.033a1.908,1.908,0,0,0-.6-1.336,32.135,32.135,0,0,1-.134-46.631,1.856,1.856,0,0,0,0-2.672l-3.307-3.274a1.876,1.876,0,0,0-2.605-.034A40.287,40.287,0,0,0,397.93,312.345Z" transform="translate(-397.93 -282.607)" fill="#fff"/>
    </g>
  </g>
</svg>
