<svg id="Internet_137_" xmlns="http://www.w3.org/2000/svg" width="69.268" height="118.6" viewBox="0 0 69.268 118.6">
  <path id="XMLID_11951_" d="M440.064,249.1c-33.394,0-34.634,9.278-34.634,9.278V358.422s1.24,9.278,34.634,9.278,34.634-9.278,34.634-9.278V258.379C474.7,258.358,473.459,249.1,440.064,249.1Zm25.976,56.131h0V353.5H414.089V263.278H466.04Z" transform="translate(-405.43 -249.1)" fill="#fff"/>
  <path id="XMLID_11954_" d="M428.562,299.19a2.607,2.607,0,0,0,3.659,0l.76-.76,2-2,17.757-17.757a2.607,2.607,0,0,0,0-3.659l-2.58-2.58a2.583,2.583,0,0,0-3.639,0l-15.937,15.937-10.918-10.918a2.583,2.583,0,0,0-3.639,0l-2.76,2.76a2.607,2.607,0,0,0,0,3.659Z" transform="translate(-398.347 -226.523)" fill="#fff"/>
</svg>
