<svg xmlns="http://www.w3.org/2000/svg" width="26.416" height="26.416" viewBox="0 0 26.416 26.416">
  <path id="app-store-ios-brands" d="M23.586,32H2.83A2.831,2.831,0,0,0,0,34.83V55.586a2.831,2.831,0,0,0,2.83,2.83H23.586a2.831,2.831,0,0,0,2.83-2.83V34.83A2.831,2.831,0,0,0,23.586,32ZM7.489,52.785a1.178,1.178,0,1,1-2.04-1.179l.843-1.456a2.024,2.024,0,0,1,2.335.672Zm8.19-3.178H4.953a1.179,1.179,0,0,1,0-2.359H7.96l3.856-6.675-1.209-2.087a1.178,1.178,0,1,1,2.04-1.179l.525.908.525-.908a1.178,1.178,0,1,1,2.04,1.179l-5.059,8.762H14.34a1.618,1.618,0,0,1,1.339,2.359Zm5.784,0h-1.71l1.156,2a1.178,1.178,0,1,1-2.04,1.179q-2.91-5.033-4.363-7.553a3.262,3.262,0,0,1,.419-4q1.159,2.008,3.473,6.014h3.066a1.179,1.179,0,1,1,0,2.359Z" transform="translate(0 -32)" fill="#333"/>
</svg>
