<svg xmlns="http://www.w3.org/2000/svg" xmlns:xlink="http://www.w3.org/1999/xlink" viewBox="0 0 1985 576.69"><defs><style>.cls-1{fill:url(#linear-gradient);}.cls-2{opacity:0.14;}.cls-3{fill:#fff;}</style><linearGradient id="linear-gradient" y1="284" x2="1985" y2="284" gradientUnits="userSpaceOnUse"><stop offset="0" stop-color="#f64747"/><stop offset="1" stop-color="#ffbe67"/></linearGradient></defs><title>naranja-icon</title><g id="Layer_1_copy" data-name="Layer 1 copy"><rect class="cls-1" width="1985" height="568"/></g><g id="pattern"><g class="cls-2"><g id="Transport"><path class="cls-3" d="M67.32,247.55c-1.17-2.13-7.71-.81-9.84.35l-5.42,2.94L38.94,240.38l-3.81,2.08,10,12.15-7.49,4.08-7.46-3.49-3.82,2.08,8.62,7.8,1.79,11.32,3.82-2.07,1.13-7.84,7.61-4.14L54,277.09,57.8,275l-1.55-16.43,5.44-3C63.82,254.47,68.48,249.69,67.32,247.55Z" transform="translate(38 -192)"/></g><g id="Transport-2" data-name="Transport"><path class="cls-3" d="M104,340.76l-.45.46a2,2,0,0,1-2.89,0L88.42,329.17l-4.12.24-15-14.48c-1.63-3.33-1.35-7.23-.56-8l.45-.46a2,2,0,0,1,2.89,0L104,337.87A2,2,0,0,1,104,340.76Z" transform="translate(38 -192)"/><path class="cls-3" d="M78.75,326.54,66.84,338.62a2,2,0,0,0,0,2.89l.46.45a2,2,0,0,0,2.89,0L82.1,329.89Z" transform="translate(38 -192)"/><path class="cls-3" d="M103,311.28h0a1.12,1.12,0,0,0-1.64-.16L94,318.51a1,1,0,0,1-1.19-.11,1,1,0,0,1,.08-1.43h0l0,0h0l7-7a1.32,1.32,0,0,0-.05-1.76h0a1.13,1.13,0,0,0-1.64-.16l-7.45,7.47a1,1,0,0,1-1.3,0,1,1,0,0,1-.15-1.09l7.23-7.26a1.29,1.29,0,0,0,0-1.75h0a1.12,1.12,0,0,0-1.64-.16l-8.14,8.17a.1.1,0,0,0,0,.05l-.38.38c-1.14,1.14-.79,4,.4,5.2L89,321.18c1.19,1.17,4.25,1.6,5.39.46l.25-.25a1.07,1.07,0,0,0,.28-.19l8.14-8.17A1.29,1.29,0,0,0,103,311.28Z" transform="translate(38 -192)"/></g><path id="Transport-3" data-name="Transport" class="cls-3" d="M54.8,719.42c.23-3.29-.53-3.45-.79-3.5L45.18,714c-2.61-4.1-8.2-8.1-11.61-8.3l-.91-.06c-3-.19-7.57-.5-10.42,1.06a35.6,35.6,0,0,0-9.32,7.35s-.32.23-2,.26a1.33,1.33,0,0,0-1.26,1.51c0,.24,0,.48,0,.71a19.76,19.76,0,0,1-.13,2.8,1.55,1.55,0,0,0-.73,1,15.25,15.25,0,0,0,.55,4l.08.35h4.25v.06a5.53,5.53,0,1,0,11.05,0v-.06H41.18a5.53,5.53,0,0,0,11.06,0h3.94v-4.64ZM50,724.76a3.22,3.22,0,1,1-3.22-3.21A3.22,3.22,0,0,1,50,724.76ZM41.3,713.42l-.46.35H28s-.17-.13-.25-.29v-5.85a3.52,3.52,0,0,1,.67-.18,13.37,13.37,0,0,1,4.64.2C35.19,708,38.73,710.17,41.3,713.42Zm-15.85-5.69a1.42,1.42,0,0,1,.37,0v5.8a1,1,0,0,1-.17.21H20.2l-1.36-1.27c.23-.7,2.74-3.09,4.37-4A7.63,7.63,0,0,1,25.45,707.73Zm-3,17a3.22,3.22,0,1,1-3.21-3.21A3.22,3.22,0,0,1,22.41,724.76Z" transform="translate(38 -192)"/><g id="Transport-4" data-name="Transport"><polygon class="cls-3" points="210.58 94.5 202.97 91.31 187.04 91.31 180.13 89.19 180.29 91.83 187.04 96.98 187.04 113.79 189.69 113.79 191.58 105.55 205.8 105.3 207.74 113.79 210.58 113.79 210.58 94.5"/><polygon class="cls-3" points="216.77 91.31 209.96 91.31 203.14 87.6 203.14 77.69 207.18 82.17 218.72 86.53 216.77 91.31"/></g><g id="Nature"><circle class="cls-3" cx="59.83" cy="487.86" r="4.17" transform="matrix(0.08, -1, 1, 0.08, -393.24, 316.83)"/><path class="cls-3" d="M62.11,508.76V498.23a6.78,6.78,0,0,0,10-9,6.78,6.78,0,0,0-5.49-11.78,7,7,0,0,0-1.66.46,6.78,6.78,0,0,0-13.4,1.88,7,7,0,0,0-1.2.07,6.78,6.78,0,0,0-1.73,12.91,6.77,6.77,0,0,0,11.38,6.73v8.93c-1-2-3-4.18-7.36-5.31,0,0-1.95,9.08,7.31,9.69a7.75,7.75,0,0,1,0-.84v3.43h2.06v-1c12.31.76,11.61-12.06,11.61-12.06C67.06,503,63.75,506.05,62.11,508.76ZM52.55,489A7.44,7.44,0,1,1,61,495.28,7.43,7.43,0,0,1,52.55,489Z" transform="translate(38 -192)"/></g><path id="Works" class="cls-3" d="M107.24,660.93a2.68,2.68,0,0,1-3.78,0l-4.35-4.28a2.68,2.68,0,0,1,0-3.78l6.45-6.55a12.08,12.08,0,0,0-2.91-.35,11.69,11.69,0,0,0-11.93,11.43,10.87,10.87,0,0,0,.63,3.66L76.06,676.38a5.11,5.11,0,0,0-1.76,3.85,5.32,5.32,0,0,0,5.41,5.24,5.47,5.47,0,0,0,3.84-1.55l15.54-15.57a12.45,12.45,0,0,0,3.53.51,11.69,11.69,0,0,0,11.93-11.43,11.17,11.17,0,0,0-.53-3.38ZM79.84,682A2.12,2.12,0,1,1,82,679.89,2.12,2.12,0,0,1,79.84,682Z" transform="translate(38 -192)"/><g id="Works-2" data-name="Works"><path class="cls-3" d="M169.59,400.71h0a32.14,32.14,0,0,1-27.67,15.93V421a36.28,36.28,0,0,0,31.4-18.08Z" transform="translate(38 -192)"/><path class="cls-3" d="M163.07,397.05a5,5,0,1,1-7.74-4.5l-13.8-8V392a3.84,3.84,0,0,1,1.4-.28,3.7,3.7,0,1,1,0,7.39,3.83,3.83,0,0,1-1.4-.27v16.27a31.37,31.37,0,0,0,26.4-15.2Zm-13.31,14.49a3.14,3.14,0,1,1,3.14-3.13A3.13,3.13,0,0,1,149.76,411.54Z" transform="translate(38 -192)"/></g><g id="Multimedia"><path class="cls-3" d="M290.1,263.86l-5.55-1.35-.79-4.39L268,254.29l-3,3.46-5.55-1.35a1.56,1.56,0,0,0-1.84,1.17l-4.89,20.12a1.54,1.54,0,0,0,1.09,1.88L284.47,287a1.53,1.53,0,0,0,1.83-1.16l4.9-20.13A1.55,1.55,0,0,0,290.1,263.86Zm-20.43,17.42A10.57,10.57,0,1,1,282,273.41,10.35,10.35,0,0,1,269.67,281.28Z" transform="translate(38 -192)"/><path class="cls-3" d="M274,263.38a7.5,7.5,0,0,0-1.32-.19,3.9,3.9,0,0,1,1.86,4.36,3.77,3.77,0,1,1-7.31-1.78,4.43,4.43,0,0,1,.33-.88,8,8,0,0,0-2.72,4.34,7.53,7.53,0,1,0,9.16-5.85Z" transform="translate(38 -192)"/></g><path id="Internet" class="cls-3" d="M27.5,581.11C17.14,584,17.56,587,17.56,587L26,617.06s3.71,1.45,11.39-.69,10.1-5.31,10.1-5.31L39.05,581S37.87,578.22,27.5,581.11Zm12.67,30.34-7.78,2.17a.94.94,0,0,1-1.16-.65.93.93,0,0,1,.65-1.15l7.79-2.18a.94.94,0,1,1,.5,1.81Zm2.7-6.44-16.12,4.5-6.08-21.75,16.12-4.5Z" transform="translate(38 -192)"/><g id="Internet-2" data-name="Internet"><path class="cls-3" d="M38.78,377.37H6.07a3.23,3.23,0,0,0-3.22,3.22V402a3.23,3.23,0,0,0,3.22,3.22H38.78A3.23,3.23,0,0,0,42,402V380.59A3.23,3.23,0,0,0,38.78,377.37ZM25.24,402H19.61v-1.26h5.63Zm14.08-2.68H5.53V380.59H39.32Z" transform="translate(38 -192)"/><path class="cls-3" d="M25.56,406.25H19.29l-1.44,1.93H12.79v.64a1.38,1.38,0,0,0,1.45,1.28H30.62a1.38,1.38,0,0,0,1.44-1.28v-.64H27Z" transform="translate(38 -192)"/></g><path class="cls-3" d="M122.51,558l-6.81-3a.87.87,0,0,0-1.14.44h0a.87.87,0,0,0,.45,1.14l6.81,3a.87.87,0,0,0,1.14-.44h0A.85.85,0,0,0,122.51,558Z" transform="translate(38 -192)"/><path class="cls-3" d="M152,556.75a.85.85,0,0,0-1-.63l-7.21,1.79a.86.86,0,0,0-.63,1h0a.86.86,0,0,0,1,.63l7.22-1.79A.85.85,0,0,0,152,556.75Z" transform="translate(38 -192)"/><path class="cls-3" d="M146.6,536.63a22.6,22.6,0,0,0-.57-8.84L144.1,520a.25.25,0,0,0-.31-.19l-10.7,2.65a.26.26,0,0,0-.19.32l1.92,7.76a22.6,22.6,0,0,0,3.62,8.08c1.41,1.85,2.91,2.83,4.31,2.83a2.74,2.74,0,0,0,.7-.09C145,541,146.15,539.31,146.6,536.63ZM139.35,538a21.7,21.7,0,0,1-3.42-7.66l-1.64-6.65a.26.26,0,0,1,.19-.32l8.47-2.1a.27.27,0,0,1,.32.19l1.64,6.65h0a21.21,21.21,0,0,1,.56,8.37c-.36,2.17-1.2,3.57-2.29,3.84S140.69,539.7,139.35,538Z" transform="translate(38 -192)"/><path class="cls-3" d="M134.86,533.1a.26.26,0,0,0-.49,0v0a19.93,19.93,0,0,1-4.52,6.68c-1.57,1.43-3.07,2-4.11,1.54s-1.65-1.93-1.67-4.05a19.91,19.91,0,0,1,1.82-7.87l2.62-6a.26.26,0,0,1,.34-.13l3.4,1.48a.27.27,0,0,0,.36-.31l-.19-.76a.27.27,0,0,0-.15-.18l-4-1.74a.25.25,0,0,0-.34.13L124.83,529a21,21,0,0,0-1.92,8.34c0,2.63.87,4.44,2.36,5.09a3.09,3.09,0,0,0,1.24.25,6.46,6.46,0,0,0,4.1-2,20.48,20.48,0,0,0,4.54-6.5.27.27,0,0,0,0-.2Q135,533.53,134.86,533.1Z" transform="translate(38 -192)"/><path class="cls-3" d="M125.53,543.19A3.35,3.35,0,0,1,125,543a3.29,3.29,0,0,1-.49-.26.26.26,0,0,0-.38.12l-5.44,12.48a.25.25,0,0,0,.14.34l1.1.48a.25.25,0,0,0,.34-.14l5.44-12.48A.26.26,0,0,0,125.53,543.19Z" transform="translate(38 -192)"/><path class="cls-3" d="M125.53,532.32a16.46,16.46,0,0,0-.79,4.95c0,1.79.5,3.11,1.26,3.44s2.06-.21,3.38-1.42a19.15,19.15,0,0,0,4.36-6.46l.14-.33a.26.26,0,0,0-.24-.36h-7.86A.25.25,0,0,0,125.53,532.32Z" transform="translate(38 -192)"/><path class="cls-3" d="M146.58,556.5l1.16-.29a.26.26,0,0,0,.19-.32l-3.43-13.84a.27.27,0,0,0-.36-.18,3,3,0,0,1-.53.18,4.85,4.85,0,0,1-.55.09.26.26,0,0,0-.23.32l3.43,13.85A.27.27,0,0,0,146.58,556.5Z" transform="translate(38 -192)"/><path class="cls-3" d="M144.44,529a.26.26,0,0,0-.26-.2H136.6a.26.26,0,0,0-.25.32l.24,1a20.87,20.87,0,0,0,3.3,7.42c1.13,1.47,2.32,2.27,3.12,2.07s1.48-1.46,1.79-3.29A19.94,19.94,0,0,0,144.44,529Z" transform="translate(38 -192)"/><path class="cls-3" d="M213.36,719.05H178.82a.27.27,0,0,0-.27.27,8.65,8.65,0,0,0,1.59,4.62,6.54,6.54,0,0,0,5.39,2.82h21.11a6.54,6.54,0,0,0,5.39-2.82,8.57,8.57,0,0,0,1.59-4.62A.25.25,0,0,0,213.36,719.05Z" transform="translate(38 -192)"/><rect class="cls-3" x="215.53" y="506.13" width="37.34" height="1.17" rx="0.27"/><rect class="cls-3" x="214.18" y="520.3" width="39.82" height="5.47" rx="2.74"/><path class="cls-3" d="M213.63,696.67c0-6.47-7.85-11.71-17.54-11.71s-17.54,5.24-17.54,11.71v0a.27.27,0,0,0,.26.27h34.55a.27.27,0,0,0,.27-.27Zm-30-3.07-.44-.25a.58.58,0,0,1-.21-.78v0a.58.58,0,0,1,.79-.21l.43.25a.57.57,0,0,1,.21.78v0A.57.57,0,0,1,183.64,693.6Zm6.18-3.42-.36.36a.58.58,0,0,1-.81,0v0a.57.57,0,0,1,0-.81l.36-.35a.56.56,0,0,1,.8,0l0,0A.56.56,0,0,1,189.82,690.18Zm3.25,3.16-.11-.49a.58.58,0,0,1,.44-.68h0a.58.58,0,0,1,.69.44l.1.49a.56.56,0,0,1-.43.68h0A.58.58,0,0,1,193.07,693.34Zm3-4.26-.42-.26a.58.58,0,0,1-.19-.79l0,0a.56.56,0,0,1,.78-.18l.43.26a.57.57,0,0,1,.18.79v0A.57.57,0,0,1,196.1,689.08Zm4.2,3.85,0,0a.58.58,0,0,1,.07-.81l.38-.32a.57.57,0,0,1,.81.06v0a.57.57,0,0,1-.06.81l-.39.32A.56.56,0,0,1,200.3,692.93Zm4.19-3-.27-.42a.57.57,0,0,1,.18-.79h0a.58.58,0,0,1,.79.17l.26.43a.57.57,0,0,1-.18.79h0A.56.56,0,0,1,204.49,689.88Zm2.78,4.31-.47-.17a.57.57,0,0,1-.34-.73v0a.57.57,0,0,1,.73-.34l.47.17a.56.56,0,0,1,.34.73v0A.59.59,0,0,1,207.27,694.19Z" transform="translate(38 -192)"/><rect class="cls-3" x="216.55" y="515.35" width="35.07" height="3.74" rx="0.29"/><path class="cls-3" d="M191.9,702.68l1.78-1.56a.29.29,0,0,0-.19-.5h-5.42a.28.28,0,0,0-.19.5l1.77,1.56A2.21,2.21,0,0,0,191.9,702.68Z" transform="translate(38 -192)"/><path class="cls-3" d="M213.17,702.66l1.7-1a.29.29,0,0,0,0-.47,2.73,2.73,0,0,0-1.64-.54h-3.95a.28.28,0,0,0-.19.5l1.77,1.56A2.22,2.22,0,0,0,213.17,702.66Z" transform="translate(38 -192)"/><path class="cls-3" d="M181.28,702.68l1.78-1.56a.29.29,0,0,0-.19-.5h-4a2.7,2.7,0,0,0-1.63.54.29.29,0,0,0,0,.47l1.7,1A2.22,2.22,0,0,0,181.28,702.68Z" transform="translate(38 -192)"/><path class="cls-3" d="M213.56,703.3a3,3,0,0,1-3.08,0l0,0-2.95-2.59a.26.26,0,0,0-.18-.07H206.1a.26.26,0,0,0-.19.07L203,703.28l0,0a3,3,0,0,1-3.08,0l0,0-3-2.59a.26.26,0,0,0-.18-.07h-1.22a.26.26,0,0,0-.19.07l-2.95,2.59,0,0a3,3,0,0,1-3.08,0l0,0-3-2.59a.26.26,0,0,0-.18-.07h-1.22a.26.26,0,0,0-.19.07l-2.95,2.59,0,0a3,3,0,0,1-3.08,0l-2.1-1.27a2.68,2.68,0,0,0-.34,1.33h0a2.73,2.73,0,0,0,2.73,2.73h34.35a2.73,2.73,0,0,0,2.74-2.73h0a2.7,2.7,0,0,0-.2-1,.28.28,0,0,0-.41-.14Z" transform="translate(38 -192)"/><path class="cls-3" d="M202.52,702.68l1.78-1.56a.29.29,0,0,0-.19-.5h-5.42a.28.28,0,0,0-.19.5l1.77,1.56A2.21,2.21,0,0,0,202.52,702.68Z" transform="translate(38 -192)"/><g id="Transport-5" data-name="Transport"><path class="cls-3" d="M306.79,360.49c-1.16-2.14-7.7-.82-9.84.34l-5.41,2.95-13.12-10.46-3.81,2.07,10,12.15-7.49,4.08-7.47-3.49-3.81,2.08,8.61,7.8,1.8,11.33,3.81-2.08,1.14-7.83,7.61-4.15L293.46,390l3.81-2.08-1.55-16.43,5.44-2.95C303.3,367.4,308,362.62,306.79,360.49Z" transform="translate(38 -192)"/></g><g id="Transport-6" data-name="Transport"><path class="cls-3" d="M343.48,453.7l-.45.46a2.06,2.06,0,0,1-2.89,0L327.9,442.1l-4.13.24-15-14.47c-1.62-3.34-1.35-7.24-.56-8l.46-.46a2,2,0,0,1,2.89,0l31.88,31.46A2,2,0,0,1,343.48,453.7Z" transform="translate(38 -192)"/><path class="cls-3" d="M318.22,439.47l-11.9,12.08a2,2,0,0,0,0,2.89l.46.46a2,2,0,0,0,2.89,0l11.88-12.05Z" transform="translate(38 -192)"/><path class="cls-3" d="M342.48,424.21h0a1.12,1.12,0,0,0-1.64-.16l-7.38,7.4a1,1,0,0,1-1.19-.12,1,1,0,0,1,.09-1.42h0l0,0h0l7-7a1.31,1.31,0,0,0,0-1.76h0a1.12,1.12,0,0,0-1.64-.15l-7.44,7.46a.94.94,0,0,1-1.46-1.13l7.24-7.25a1.33,1.33,0,0,0-.05-1.76h0a1.13,1.13,0,0,0-1.64-.15l-8.15,8.16,0,.05-.38.38c-1.14,1.15-.8,4,.4,5.21l2.26,2.21c1.2,1.17,4.26,1.6,5.39.46l.26-.25a1.26,1.26,0,0,0,.28-.19l8.14-8.17A1.31,1.31,0,0,0,342.48,424.21Z" transform="translate(38 -192)"/></g><g id="Transport-7" data-name="Transport"><polygon class="cls-3" points="491.05 197.43 483.44 194.25 467.51 194.25 460.61 192.12 460.77 194.77 467.51 199.91 467.51 216.72 470.17 216.72 472.05 208.49 486.28 208.23 488.21 216.72 491.05 216.72 491.05 197.43"/><polygon class="cls-3" points="497.25 194.25 490.43 194.25 483.62 190.53 483.62 180.62 487.65 185.11 499.19 189.47 497.25 194.25"/></g><g id="Nature-2" data-name="Nature"><circle class="cls-3" cx="299.3" cy="600.79" r="4.17" transform="translate(-285.32 659.54) rotate(-85.45)"/><path class="cls-3" d="M301.58,621.69V611.16a6.78,6.78,0,0,0,11.22-6,6.92,6.92,0,0,0-1.17-2.92,6.79,6.79,0,0,0-5.49-11.79,6.91,6.91,0,0,0-1.66.47,6.78,6.78,0,0,0-13.41,1.87,6.78,6.78,0,0,0-2.92,13,6.68,6.68,0,0,0-.25,3.06,6.77,6.77,0,0,0,11.63,3.66v8.93c-1-2-3-4.18-7.37-5.31,0,0-2,9.09,7.31,9.69a6.48,6.48,0,0,1,.06-.84v3.44h2.05v-1c12.31.76,11.61-12.06,11.61-12.06C306.53,616,303.22,619,301.58,621.69ZM292,602a7.44,7.44,0,1,1,8.45,6.27A7.44,7.44,0,0,1,292,602Z" transform="translate(38 -192)"/></g><g id="Works-3" data-name="Works"><path class="cls-3" d="M409.07,513.64h0a32.13,32.13,0,0,1-27.67,15.93v4.31a36.32,36.32,0,0,0,31.4-18.07Z" transform="translate(38 -192)"/><path class="cls-3" d="M402.55,510a5,5,0,1,1-7.74-4.5l-13.8-8v7.44a3.61,3.61,0,0,1,1.4-.28,3.7,3.7,0,0,1,0,7.39,3.61,3.61,0,0,1-1.4-.28V528a31.35,31.35,0,0,0,26.4-15.2Zm-13.31,14.5a3.14,3.14,0,1,1,3.13-3.14A3.14,3.14,0,0,1,389.24,524.48Z" transform="translate(38 -192)"/></g><g id="Multimedia-2" data-name="Multimedia"><path class="cls-3" d="M565.58,403.8,560,402.45l-.79-4.39-15.79-3.84-3,3.47-5.55-1.35a1.54,1.54,0,0,0-1.83,1.17l-4.89,20.12a1.53,1.53,0,0,0,1.09,1.88L560,427a1.54,1.54,0,0,0,1.83-1.17l4.89-20.12A1.54,1.54,0,0,0,565.58,403.8Zm-20.44,17.41a10.57,10.57,0,1,1,12.33-7.87A10.35,10.35,0,0,1,545.14,421.21Z" transform="translate(38 -192)"/><path class="cls-3" d="M549.45,403.32a7.78,7.78,0,0,0-1.33-.2,3.9,3.9,0,0,1,1.86,4.36,3.76,3.76,0,1,1-7.31-1.77,4,4,0,0,1,.33-.88,8,8,0,0,0-2.71,4.33,7.52,7.52,0,1,0,9.16-5.84Z" transform="translate(38 -192)"/></g><path id="Internet-3" data-name="Internet" class="cls-3" d="M304,700c-10.37,2.9-10,5.88-10,5.88l8.4,30.08s3.72,1.44,11.39-.7,10.11-5.3,10.11-5.3l-8.4-30.08S314.34,697.15,304,700Zm12.67,30.34-7.79,2.18a.94.94,0,1,1-.5-1.81l7.78-2.18a1,1,0,0,1,1.16.66A.93.93,0,0,1,316.65,730.38Zm2.69-6.44-16.12,4.5-6.07-21.75,16.12-4.5Z" transform="translate(38 -192)"/><g id="Internet-4" data-name="Internet"><path class="cls-3" d="M262.26,479.31H229.54a3.21,3.21,0,0,0-3.21,3.21V504a3.22,3.22,0,0,0,3.21,3.21h32.72a3.23,3.23,0,0,0,3.22-3.21V482.52A3.22,3.22,0,0,0,262.26,479.31ZM248.72,504h-5.63v-1.27h5.63Zm14.07-2.69H229V482.52h33.78Z" transform="translate(38 -192)"/><path class="cls-3" d="M249,508.18h-6.26l-1.45,1.93h-5.06v.64a1.39,1.39,0,0,0,1.45,1.29h16.38a1.38,1.38,0,0,0,1.45-1.29v-.64h-5.06Z" transform="translate(38 -192)"/></g><path class="cls-3" d="M362,671l-6.82-3a.86.86,0,0,0-1.13.45h0a.86.86,0,0,0,.44,1.13l6.82,3a.86.86,0,0,0,1.13-.45h0A.86.86,0,0,0,362,671Z" transform="translate(38 -192)"/><path class="cls-3" d="M391.45,669.68a.87.87,0,0,0-1-.63l-7.22,1.79a.87.87,0,0,0-.63,1h0a.86.86,0,0,0,1.05.63l7.21-1.79A.86.86,0,0,0,391.45,669.68Z" transform="translate(38 -192)"/><path class="cls-3" d="M386.08,649.56a22.56,22.56,0,0,0-.58-8.83L383.58,633a.27.27,0,0,0-.32-.19l-10.7,2.66a.25.25,0,0,0-.19.31l1.92,7.77a22.59,22.59,0,0,0,3.63,8.08c1.4,1.84,2.91,2.82,4.3,2.82a2.82,2.82,0,0,0,.71-.09C384.51,653.93,385.63,652.24,386.08,649.56Zm-7.25,1.33a21.36,21.36,0,0,1-3.42-7.66l-1.65-6.65a.27.27,0,0,1,.19-.32l8.47-2.1a.27.27,0,0,1,.32.19l1.65,6.65h0a21.42,21.42,0,0,1,.55,8.38c-.36,2.16-1.19,3.56-2.29,3.83S380.16,652.64,378.83,650.89Z" transform="translate(38 -192)"/><path class="cls-3" d="M374.33,646a.26.26,0,0,0-.49,0v0a20,20,0,0,1-4.53,6.69c-1.57,1.43-3.07,2-4.1,1.53s-1.65-1.93-1.68-4a19.91,19.91,0,0,1,1.82-7.87l2.62-6a.27.27,0,0,1,.35-.13l3.4,1.48a.25.25,0,0,0,.35-.3l-.19-.77a.23.23,0,0,0-.15-.17l-4-1.75a.26.26,0,0,0-.34.13l-3.08,7.07a21.21,21.21,0,0,0-1.92,8.34c0,2.64.87,4.44,2.37,5.09a3.06,3.06,0,0,0,1.24.26,6.48,6.48,0,0,0,4.1-2,20.8,20.8,0,0,0,4.54-6.5.23.23,0,0,0,0-.2Z" transform="translate(38 -192)"/><path class="cls-3" d="M365,656.12a4.12,4.12,0,0,1-.53-.18,4,4,0,0,1-.5-.27.27.27,0,0,0-.38.12l-5.44,12.48a.27.27,0,0,0,.14.34l1.1.48a.25.25,0,0,0,.34-.13l5.44-12.48A.26.26,0,0,0,365,656.12Z" transform="translate(38 -192)"/><path class="cls-3" d="M365,645.26a16.72,16.72,0,0,0-.79,4.94c0,1.79.51,3.11,1.27,3.44s2-.21,3.38-1.41a19.34,19.34,0,0,0,4.35-6.46l.15-.33a.26.26,0,0,0-.24-.37h-7.87A.26.26,0,0,0,365,645.26Z" transform="translate(38 -192)"/><path class="cls-3" d="M386.05,669.43l1.17-.29a.26.26,0,0,0,.19-.31L384,655a.26.26,0,0,0-.36-.17,3.27,3.27,0,0,1-.53.17,2.63,2.63,0,0,1-.55.09.28.28,0,0,0-.24.33l3.44,13.84A.25.25,0,0,0,386.05,669.43Z" transform="translate(38 -192)"/><path class="cls-3" d="M383.91,642a.26.26,0,0,0-.25-.21h-7.59a.27.27,0,0,0-.25.33l.25,1a20.65,20.65,0,0,0,3.3,7.41c1.12,1.48,2.32,2.27,3.12,2.07s1.48-1.46,1.79-3.29A20.13,20.13,0,0,0,383.91,642Z" transform="translate(38 -192)"/><path id="Transport-8" data-name="Transport" class="cls-3" d="M422.27,308.35c.23-3.28-.53-3.44-.78-3.5L412.66,303c-2.62-4.09-8.21-8.1-11.62-8.29l-.9-.06c-3-.2-7.57-.5-10.43,1.05a35.81,35.81,0,0,0-9.32,7.36s-.31.22-2,.25a1.35,1.35,0,0,0-1.27,1.52v.71a18.31,18.31,0,0,1-.13,2.79,1.53,1.53,0,0,0-.72,1,14.72,14.72,0,0,0,.54,4l.08.35h4.25v.07a5.53,5.53,0,0,0,11.06,0v-.07h16.47v0a5.53,5.53,0,1,0,11,0v0h3.94V309Zm-4.85,5.35a3.22,3.22,0,1,1-3.22-3.22A3.22,3.22,0,0,1,417.42,313.7Zm-8.65-11.35-.45.35H395.5c-.05,0-.17-.13-.26-.29v-5.84a2.46,2.46,0,0,1,.68-.18,13.1,13.1,0,0,1,4.63.19C402.66,297,406.2,299.1,408.77,302.35Zm-15.85-5.69a2,2,0,0,1,.37,0v5.8a1,1,0,0,1-.16.21h-5.45l-1.37-1.26c.24-.7,2.74-3.09,4.38-4A7.56,7.56,0,0,1,392.92,296.66Zm-3,17a3.22,3.22,0,1,1-3.22-3.22A3.22,3.22,0,0,1,389.89,313.7Z" transform="translate(38 -192)"/><path id="Works-4" data-name="Works" class="cls-3" d="M474.72,249.87a2.7,2.7,0,0,1-3.79,0l-4.34-4.29a2.68,2.68,0,0,1,0-3.78l6.45-6.55a12.69,12.69,0,0,0-2.92-.34,11.68,11.68,0,0,0-11.92,11.43,11.1,11.1,0,0,0,.62,3.65l-15.26,15.29a5.17,5.17,0,0,0-1.75,3.85,5.32,5.32,0,0,0,5.4,5.24,5.45,5.45,0,0,0,3.84-1.55l15.55-15.57a12.38,12.38,0,0,0,3.52.51A11.68,11.68,0,0,0,482,246.37a10.77,10.77,0,0,0-.53-3.38ZM447.31,271a2.12,2.12,0,1,1,2.12-2.12A2.12,2.12,0,0,1,447.31,271Z" transform="translate(38 -192)"/><path class="cls-3" d="M590.83,288H556.29a.26.26,0,0,0-.26.28,8.57,8.57,0,0,0,1.59,4.61,6.53,6.53,0,0,0,5.38,2.82h21.12a6.54,6.54,0,0,0,5.39-2.82,8.65,8.65,0,0,0,1.59-4.61A.28.28,0,0,0,590.83,288Z" transform="translate(38 -192)"/><rect class="cls-3" x="593" y="75.06" width="37.34" height="1.17" rx="0.27"/><rect class="cls-3" x="591.65" y="89.24" width="39.82" height="5.47" rx="2.74"/><path class="cls-3" d="M591.1,265.61c0-6.47-7.85-11.72-17.54-11.72S556,259.14,556,265.61v0a.27.27,0,0,0,.27.26h34.55a.26.26,0,0,0,.26-.26Zm-30-3.08-.43-.25a.56.56,0,0,1-.21-.78v0a.57.57,0,0,1,.78-.21l.44.25a.58.58,0,0,1,.21.78l0,0A.56.56,0,0,1,561.11,262.53Zm6.19-3.41-.36.35a.57.57,0,0,1-.81,0l0,0a.58.58,0,0,1,0-.81l.36-.35a.58.58,0,0,1,.81,0l0,0A.58.58,0,0,1,567.3,259.12Zm3.25,3.15-.11-.49a.57.57,0,0,1,.43-.68h0a.56.56,0,0,1,.68.43l.11.49a.57.57,0,0,1-.44.68h0A.57.57,0,0,1,570.55,262.27Zm3-4.25-.43-.27A.57.57,0,0,1,573,257v0a.58.58,0,0,1,.79-.18l.42.27a.57.57,0,0,1,.19.78l0,0A.57.57,0,0,1,573.58,258Zm4.19,3.84,0,0a.58.58,0,0,1,.07-.81l.39-.32a.57.57,0,0,1,.8.07l0,0a.57.57,0,0,1-.07.8l-.38.33A.58.58,0,0,1,577.77,261.86Zm4.19-3-.27-.43a.57.57,0,0,1,.18-.79h0a.57.57,0,0,1,.79.18l.27.42a.57.57,0,0,1-.18.79h0A.58.58,0,0,1,582,258.82Zm2.79,4.3-.47-.17a.57.57,0,0,1-.35-.73v0a.58.58,0,0,1,.73-.35l.47.17a.57.57,0,0,1,.35.73v0A.57.57,0,0,1,584.75,263.12Z" transform="translate(38 -192)"/><rect class="cls-3" x="594.03" y="84.28" width="35.07" height="3.74" rx="0.29"/><path class="cls-3" d="M569.38,271.61l1.77-1.56a.28.28,0,0,0-.19-.5h-5.42a.29.29,0,0,0-.19.5l1.77,1.56A2.23,2.23,0,0,0,569.38,271.61Z" transform="translate(38 -192)"/><path class="cls-3" d="M590.65,271.6l1.7-1a.29.29,0,0,0,0-.47,2.65,2.65,0,0,0-1.63-.55h-4a.29.29,0,0,0-.19.5l1.77,1.56A2.24,2.24,0,0,0,590.65,271.6Z" transform="translate(38 -192)"/><path class="cls-3" d="M558.76,271.61l1.77-1.56a.28.28,0,0,0-.19-.5h-4a2.68,2.68,0,0,0-1.64.55.29.29,0,0,0,0,.47l1.7,1A2.22,2.22,0,0,0,558.76,271.61Z" transform="translate(38 -192)"/><path class="cls-3" d="M591,272.23a3,3,0,0,1-3.08,0l0,0L585,269.62a.32.32,0,0,0-.19-.07h-1.22a.29.29,0,0,0-.18.07l-2.95,2.59,0,0a3,3,0,0,1-3.08,0l0,0-2.94-2.59a.32.32,0,0,0-.19-.07H573a.29.29,0,0,0-.18.07l-2.95,2.59,0,0a3,3,0,0,1-3.08,0l0,0-2.94-2.59a.32.32,0,0,0-.19-.07h-1.22a.29.29,0,0,0-.18.07l-2.95,2.59,0,0a3,3,0,0,1-3.08,0L554,271a2.71,2.71,0,0,0-.34,1.33h0a2.73,2.73,0,0,0,2.74,2.73h34.35a2.73,2.73,0,0,0,2.73-2.73h0a2.74,2.74,0,0,0-.2-1,.29.29,0,0,0-.41-.14Z" transform="translate(38 -192)"/><path class="cls-3" d="M580,271.61l1.77-1.56a.28.28,0,0,0-.19-.5h-5.42a.29.29,0,0,0-.19.5l1.77,1.56A2.23,2.23,0,0,0,580,271.61Z" transform="translate(38 -192)"/><g id="Transport-9" data-name="Transport"><path class="cls-3" d="M565.48,564.7l-.45.46a2.06,2.06,0,0,1-2.89,0L549.9,553.1l-4.13.24-15-14.47c-1.62-3.34-1.35-7.24-.56-8l.46-.46a2,2,0,0,1,2.89,0l31.88,31.46A2,2,0,0,1,565.48,564.7Z" transform="translate(38 -192)"/><path class="cls-3" d="M540.22,550.47l-11.9,12.08a2,2,0,0,0,0,2.89l.46.46a2,2,0,0,0,2.89,0l11.88-12Z" transform="translate(38 -192)"/><path class="cls-3" d="M564.48,535.21h0a1.12,1.12,0,0,0-1.64-.16l-7.38,7.4a1,1,0,0,1-1.19-.12,1,1,0,0,1,.09-1.42h0l0,0h0l7-7a1.31,1.31,0,0,0,0-1.76h0a1.12,1.12,0,0,0-1.64-.15l-7.44,7.46a.94.94,0,0,1-1.46-1.13l7.24-7.25a1.33,1.33,0,0,0,0-1.76h0a1.13,1.13,0,0,0-1.64-.15l-8.15,8.16,0,0-.38.38c-1.14,1.15-.8,4,.4,5.21l2.26,2.21c1.2,1.17,4.26,1.6,5.39.46l.26-.25a1.26,1.26,0,0,0,.28-.19l8.14-8.17A1.31,1.31,0,0,0,564.48,535.21Z" transform="translate(38 -192)"/></g><g id="Transport-10" data-name="Transport"><polygon class="cls-3" points="672.05 318.43 664.44 315.25 648.51 315.25 641.61 313.12 641.77 315.77 648.51 320.91 648.51 337.72 651.17 337.72 653.05 329.49 667.28 329.23 669.22 337.72 672.05 337.72 672.05 318.43"/><polygon class="cls-3" points="678.25 315.25 671.43 315.25 664.62 311.53 664.62 301.62 668.65 306.11 680.19 310.47 678.25 315.25"/></g><g id="Nature-3" data-name="Nature"><circle class="cls-3" cx="521.3" cy="711.79" r="4.17" transform="matrix(0.08, -1, 1, 0.08, -191.57, 983.04)"/><path class="cls-3" d="M523.58,732.69V722.16a6.78,6.78,0,0,0,11.22-6,6.92,6.92,0,0,0-1.17-2.92,6.79,6.79,0,0,0-5.49-11.79,6.91,6.91,0,0,0-1.66.47,6.78,6.78,0,0,0-13.41,1.87,6.78,6.78,0,0,0-2.92,13,6.68,6.68,0,0,0-.25,3.06,6.77,6.77,0,0,0,11.63,3.66v8.93c-1-2-3-4.18-7.37-5.31,0,0-1.95,9.09,7.31,9.69a6.48,6.48,0,0,1,.06-.84v3.44h2.05v-1c12.31.76,11.61-12.06,11.61-12.06C528.53,727,525.22,730,523.58,732.69ZM514,713a7.44,7.44,0,1,1,8.45,6.27A7.44,7.44,0,0,1,514,713Z" transform="translate(38 -192)"/></g><g id="Works-5" data-name="Works"><path class="cls-3" d="M631.07,624.64h0a32.13,32.13,0,0,1-27.67,15.93v4.31a36.32,36.32,0,0,0,31.4-18.07Z" transform="translate(38 -192)"/><path class="cls-3" d="M624.55,621a5,5,0,1,1-7.74-4.5l-13.8-8v7.44a3.61,3.61,0,0,1,1.4-.28,3.7,3.7,0,0,1,0,7.39,3.61,3.61,0,0,1-1.4-.28V639a31.35,31.35,0,0,0,26.4-15.2Zm-13.31,14.5a3.14,3.14,0,1,1,3.13-3.14A3.14,3.14,0,0,1,611.24,635.48Z" transform="translate(38 -192)"/></g><g id="Multimedia-3" data-name="Multimedia"><path class="cls-3" d="M751.58,487.8,746,486.45l-.79-4.39-15.79-3.84-3,3.47-5.55-1.35a1.54,1.54,0,0,0-1.83,1.17l-4.89,20.12a1.53,1.53,0,0,0,1.09,1.88L746,511a1.54,1.54,0,0,0,1.83-1.17l4.89-20.12A1.54,1.54,0,0,0,751.58,487.8Zm-20.44,17.41a10.57,10.57,0,1,1,12.33-7.87A10.35,10.35,0,0,1,731.14,505.21Z" transform="translate(38 -192)"/><path class="cls-3" d="M735.45,487.32a7.78,7.78,0,0,0-1.33-.2,3.9,3.9,0,0,1,1.86,4.36,3.76,3.76,0,1,1-7.31-1.77,4,4,0,0,1,.33-.88,8,8,0,0,0-2.71,4.33,7.52,7.52,0,1,0,9.16-5.84Z" transform="translate(38 -192)"/></g><g id="Internet-5" data-name="Internet"><path class="cls-3" d="M484.26,590.31H451.54a3.21,3.21,0,0,0-3.21,3.21V615a3.22,3.22,0,0,0,3.21,3.21h32.72a3.23,3.23,0,0,0,3.22-3.21V593.52A3.22,3.22,0,0,0,484.26,590.31ZM470.72,615h-5.63v-1.27h5.63Zm14.07-2.69H451V593.52h33.78Z" transform="translate(38 -192)"/><path class="cls-3" d="M471,619.18h-6.26l-1.45,1.93h-5.06v.64a1.39,1.39,0,0,0,1.45,1.29h16.38a1.38,1.38,0,0,0,1.45-1.29v-.64h-5.06Z" transform="translate(38 -192)"/></g><g id="Transport-11" data-name="Transport"><path class="cls-3" d="M743.79,255.49c-1.16-2.14-7.7-.82-9.84.34l-5.41,2.95-13.12-10.46-3.81,2.07,10,12.15-7.49,4.08-7.47-3.49-3.81,2.08,8.61,7.8,1.8,11.33,3.81-2.08,1.14-7.83,7.61-4.15L730.46,285l3.81-2.08-1.55-16.43,5.44-2.95C740.3,262.4,745,257.62,743.79,255.49Z" transform="translate(38 -192)"/></g><g id="Transport-12" data-name="Transport"><path class="cls-3" d="M780.48,348.7l-.45.46a2.06,2.06,0,0,1-2.89,0L764.9,337.1l-4.13.24-15-14.47c-1.62-3.34-1.35-7.24-.56-8l.46-.46a2,2,0,0,1,2.89,0l31.88,31.46A2,2,0,0,1,780.48,348.7Z" transform="translate(38 -192)"/><path class="cls-3" d="M755.22,334.47l-11.9,12.08a2,2,0,0,0,0,2.89l.46.46a2,2,0,0,0,2.89,0l11.88-12.05Z" transform="translate(38 -192)"/><path class="cls-3" d="M779.48,319.21h0a1.12,1.12,0,0,0-1.64-.16l-7.38,7.4a1,1,0,0,1-1.19-.12,1,1,0,0,1,.09-1.42h0l0,0h0l7-7a1.31,1.31,0,0,0,0-1.76h0a1.12,1.12,0,0,0-1.64-.15l-7.44,7.46a.94.94,0,0,1-1.46-1.13l7.24-7.25a1.33,1.33,0,0,0,0-1.76h0a1.13,1.13,0,0,0-1.64-.15l-8.15,8.16,0,.05-.38.38c-1.14,1.15-.8,4,.4,5.21l2.26,2.21c1.2,1.17,4.26,1.6,5.39.46l.26-.25a1.26,1.26,0,0,0,.28-.19l8.14-8.17A1.31,1.31,0,0,0,779.48,319.21Z" transform="translate(38 -192)"/></g><path id="Transport-13" data-name="Transport" class="cls-3" d="M731.27,727.35c.23-3.28-.53-3.44-.78-3.5L721.66,722c-2.62-4.09-8.21-8.1-11.62-8.29l-.9-.06c-3-.2-7.57-.5-10.43,1a35.81,35.81,0,0,0-9.32,7.36s-.31.22-2,.25a1.35,1.35,0,0,0-1.27,1.52v.71a18.31,18.31,0,0,1-.13,2.79,1.53,1.53,0,0,0-.72,1,14.72,14.72,0,0,0,.54,4l.08.35h4.25v.07a5.53,5.53,0,0,0,11.06,0v-.07h16.47v0a5.53,5.53,0,1,0,11.05,0v0h3.94V728Zm-4.85,5.35a3.22,3.22,0,1,1-3.22-3.22A3.22,3.22,0,0,1,726.42,732.7Zm-8.65-11.35-.45.35H704.5s-.17-.13-.26-.29v-5.84a2.46,2.46,0,0,1,.68-.18,13.1,13.1,0,0,1,4.63.19C711.66,716,715.2,718.1,717.77,721.35Zm-15.85-5.69a2,2,0,0,1,.37,0v5.8a1,1,0,0,1-.16.21h-5.45l-1.37-1.26c.24-.7,2.74-3.09,4.38-4A7.56,7.56,0,0,1,701.92,715.66Zm-3,17a3.22,3.22,0,1,1-3.22-3.22A3.22,3.22,0,0,1,698.89,732.7Z" transform="translate(38 -192)"/><g id="Transport-14" data-name="Transport"><polygon class="cls-3" points="887.05 102.43 879.44 99.25 863.51 99.25 856.61 97.12 856.77 99.77 863.51 104.91 863.51 121.72 866.17 121.72 868.05 113.49 882.28 113.23 884.22 121.72 887.05 121.72 887.05 102.43"/><polygon class="cls-3" points="893.25 99.25 886.43 99.25 879.62 95.53 879.62 85.62 883.65 90.11 895.19 94.47 893.25 99.25"/></g><g id="Nature-4" data-name="Nature"><circle class="cls-3" cx="908.3" cy="495.79" r="4.17" transform="matrix(0.08, -1, 1, 0.08, 380.08, 1169.94)"/><path class="cls-3" d="M910.58,516.69V506.16a6.78,6.78,0,0,0,11.22-6.05,6.92,6.92,0,0,0-1.17-2.92,6.79,6.79,0,0,0-5.49-11.79,6.91,6.91,0,0,0-1.66.47,6.78,6.78,0,0,0-13.41,1.87,6.78,6.78,0,0,0-2.92,13,6.68,6.68,0,0,0-.25,3.06,6.77,6.77,0,0,0,11.63,3.66v8.93c-1-2-3-4.18-7.37-5.31,0,0-1.95,9.09,7.31,9.69a6.48,6.48,0,0,1,.06-.84v3.44h2.05v-1c12.31.76,11.61-12.06,11.61-12.06C915.53,511,912.22,514,910.58,516.69ZM901,497a7.44,7.44,0,1,1,8.45,6.27A7.44,7.44,0,0,1,901,497Z" transform="translate(38 -192)"/></g><path id="Works-6" data-name="Works" class="cls-3" d="M783.72,668.87a2.7,2.7,0,0,1-3.79,0l-4.34-4.29a2.68,2.68,0,0,1,0-3.78l6.45-6.55a12.69,12.69,0,0,0-2.92-.34,11.68,11.68,0,0,0-11.92,11.43,11.1,11.1,0,0,0,.62,3.65l-15.26,15.29a5.17,5.17,0,0,0-1.75,3.85,5.32,5.32,0,0,0,5.4,5.24,5.45,5.45,0,0,0,3.84-1.55l15.55-15.57a12.38,12.38,0,0,0,3.52.51A11.68,11.68,0,0,0,791,665.37a10.77,10.77,0,0,0-.53-3.38ZM756.31,690a2.12,2.12,0,1,1,2.12-2.12A2.12,2.12,0,0,1,756.31,690Z" transform="translate(38 -192)"/><g id="Works-7" data-name="Works"><path class="cls-3" d="M846.07,408.64h0a32.13,32.13,0,0,1-27.67,15.93v4.31a36.32,36.32,0,0,0,31.4-18.07Z" transform="translate(38 -192)"/><path class="cls-3" d="M839.55,405a5,5,0,1,1-7.74-4.5l-13.8-8v7.44a3.61,3.61,0,0,1,1.4-.28,3.7,3.7,0,0,1,0,7.39,3.61,3.61,0,0,1-1.4-.28V423a31.35,31.35,0,0,0,26.4-15.2Zm-13.31,14.5a3.14,3.14,0,1,1,3.13-3.14A3.14,3.14,0,0,1,826.24,419.48Z" transform="translate(38 -192)"/></g><g id="Multimedia-4" data-name="Multimedia"><path class="cls-3" d="M966.58,271.8,961,270.45l-.79-4.39-15.79-3.84-3,3.47-5.55-1.35a1.54,1.54,0,0,0-1.83,1.17l-4.89,20.12a1.53,1.53,0,0,0,1.09,1.88L961,295a1.54,1.54,0,0,0,1.83-1.17l4.89-20.12A1.54,1.54,0,0,0,966.58,271.8Zm-20.44,17.41a10.57,10.57,0,1,1,12.33-7.87A10.35,10.35,0,0,1,946.14,289.21Z" transform="translate(38 -192)"/><path class="cls-3" d="M950.45,271.32a7.78,7.78,0,0,0-1.33-.2,3.9,3.9,0,0,1,1.86,4.36,3.76,3.76,0,1,1-7.31-1.77,4,4,0,0,1,.33-.88,8,8,0,0,0-2.71,4.33,7.52,7.52,0,1,0,9.16-5.84Z" transform="translate(38 -192)"/></g><path id="Internet-6" data-name="Internet" class="cls-3" d="M704,589c-10.37,2.9-10,5.88-10,5.88l8.4,30.08s3.72,1.44,11.39-.7,10.11-5.3,10.11-5.3l-8.4-30.08S714.34,586.15,704,589Zm12.67,30.34-7.79,2.18a.94.94,0,1,1-.5-1.81l7.78-2.18a1,1,0,0,1,1.16.66A.93.93,0,0,1,716.65,619.38Zm2.69-6.44-16.12,4.5-6.07-21.75,16.12-4.5Z" transform="translate(38 -192)"/><g id="Internet-7" data-name="Internet"><path class="cls-3" d="M699.26,374.31H666.54a3.21,3.21,0,0,0-3.21,3.21V399a3.22,3.22,0,0,0,3.21,3.21h32.72a3.23,3.23,0,0,0,3.22-3.21V377.52A3.22,3.22,0,0,0,699.26,374.31ZM685.72,399h-5.63v-1.27h5.63Zm14.07-2.69H666V377.52h33.78Z" transform="translate(38 -192)"/><path class="cls-3" d="M686,403.18h-6.26l-1.45,1.93h-5.06v.64a1.39,1.39,0,0,0,1.45,1.29h16.38a1.38,1.38,0,0,0,1.45-1.29v-.64h-5.06Z" transform="translate(38 -192)"/></g><path class="cls-3" d="M799,566l-6.82-3a.86.86,0,0,0-1.13.45h0a.86.86,0,0,0,.44,1.13l6.82,3a.86.86,0,0,0,1.13-.45h0A.86.86,0,0,0,799,566Z" transform="translate(38 -192)"/><path class="cls-3" d="M828.45,564.68a.87.87,0,0,0-1-.63l-7.22,1.79a.87.87,0,0,0-.63,1h0a.86.86,0,0,0,1.05.63l7.21-1.79A.86.86,0,0,0,828.45,564.68Z" transform="translate(38 -192)"/><path class="cls-3" d="M823.08,544.56a22.56,22.56,0,0,0-.58-8.83L820.58,528a.27.27,0,0,0-.32-.19l-10.7,2.66a.25.25,0,0,0-.19.31l1.92,7.77a22.59,22.59,0,0,0,3.63,8.08c1.4,1.84,2.91,2.82,4.3,2.82a2.82,2.82,0,0,0,.71-.09C821.51,548.93,822.63,547.24,823.08,544.56Zm-7.25,1.33a21.36,21.36,0,0,1-3.42-7.66l-1.65-6.65a.27.27,0,0,1,.19-.32l8.47-2.1a.27.27,0,0,1,.32.19l1.65,6.65h0a21.42,21.42,0,0,1,.55,8.38c-.36,2.16-1.19,3.56-2.29,3.83S817.16,547.64,815.83,545.89Z" transform="translate(38 -192)"/><path class="cls-3" d="M811.33,541a.26.26,0,0,0-.49,0v0a20,20,0,0,1-4.53,6.69c-1.57,1.43-3.07,2-4.1,1.53s-1.65-1.93-1.68-4a19.91,19.91,0,0,1,1.82-7.87l2.62-6a.27.27,0,0,1,.35-.13l3.4,1.48a.25.25,0,0,0,.35-.3l-.19-.77a.23.23,0,0,0-.15-.17l-4-1.75a.26.26,0,0,0-.34.13l-3.08,7.07a21.21,21.21,0,0,0-1.92,8.34c0,2.64.87,4.44,2.37,5.09a3.06,3.06,0,0,0,1.24.26,6.48,6.48,0,0,0,4.1-2,20.8,20.8,0,0,0,4.54-6.5.23.23,0,0,0,0-.2Z" transform="translate(38 -192)"/><path class="cls-3" d="M802,551.12a4.12,4.12,0,0,1-.53-.18,4,4,0,0,1-.5-.27.27.27,0,0,0-.38.12l-5.44,12.48a.27.27,0,0,0,.14.34l1.1.48a.25.25,0,0,0,.34-.13l5.44-12.48A.26.26,0,0,0,802,551.12Z" transform="translate(38 -192)"/><path class="cls-3" d="M802,540.26a16.72,16.72,0,0,0-.79,4.94c0,1.79.51,3.11,1.27,3.44s2-.21,3.38-1.41a19.34,19.34,0,0,0,4.35-6.46l.15-.33a.26.26,0,0,0-.24-.37h-7.87A.26.26,0,0,0,802,540.26Z" transform="translate(38 -192)"/><path class="cls-3" d="M823.05,564.43l1.17-.29a.26.26,0,0,0,.19-.31L821,550a.26.26,0,0,0-.36-.17,3.27,3.27,0,0,1-.53.17,2.63,2.63,0,0,1-.55.09.28.28,0,0,0-.24.33l3.44,13.84A.25.25,0,0,0,823.05,564.43Z" transform="translate(38 -192)"/><path class="cls-3" d="M820.91,537a.26.26,0,0,0-.25-.21h-7.59a.27.27,0,0,0-.25.33l.25,1a20.65,20.65,0,0,0,3.3,7.41c1.12,1.48,2.32,2.27,3.12,2.07s1.48-1.46,1.79-3.29A20.13,20.13,0,0,0,820.91,537Z" transform="translate(38 -192)"/><g id="Transport-15" data-name="Transport"><path class="cls-3" d="M1678.89,282.49c-1.16-2.14-7.7-.82-9.84.34l-5.41,2.95-13.12-10.46-3.81,2.07,10,12.15-7.49,4.08-7.47-3.49-3.81,2.08,8.61,7.8,1.8,11.33,3.81-2.08,1.14-7.83,7.61-4.15,4.64,14.75,3.81-2.08-1.55-16.43,5.44-2.95C1675.4,289.4,1680.05,284.62,1678.89,282.49Z" transform="translate(38 -192)"/></g><g id="Transport-16" data-name="Transport"><path class="cls-3" d="M1057.58,371.7l-.45.46a2.06,2.06,0,0,1-2.89,0L1042,360.1l-4.13.24-15-14.47c-1.62-3.34-1.35-7.24-.56-8l.46-.46a2,2,0,0,1,2.89,0l31.88,31.46A2,2,0,0,1,1057.58,371.7Z" transform="translate(38 -192)"/><path class="cls-3" d="M1032.32,357.47l-11.9,12.08a2,2,0,0,0,0,2.89l.46.46a2,2,0,0,0,2.89,0l11.88-12.05Z" transform="translate(38 -192)"/><path class="cls-3" d="M1056.58,342.21h0a1.12,1.12,0,0,0-1.64-.16l-7.38,7.4a1,1,0,0,1-1.19-.12,1,1,0,0,1,.09-1.42h0l0,0h0l7-7a1.31,1.31,0,0,0,0-1.76h0a1.12,1.12,0,0,0-1.64-.15l-7.44,7.46a.94.94,0,0,1-1.46-1.13l7.24-7.25a1.33,1.33,0,0,0-.05-1.76h0a1.13,1.13,0,0,0-1.64-.15l-8.15,8.16,0,.05-.38.38c-1.14,1.15-.8,4,.4,5.21l2.26,2.21c1.2,1.17,4.26,1.6,5.39.46l.26-.25a1.26,1.26,0,0,0,.28-.19l8.14-8.17A1.31,1.31,0,0,0,1056.58,342.21Z" transform="translate(38 -192)"/></g><path id="Transport-17" data-name="Transport" class="cls-3" d="M1213.37,499.35c.23-3.28-.53-3.44-.78-3.5l-8.83-1.89c-2.62-4.09-8.21-8.1-11.62-8.29l-.9-.06c-3-.2-7.57-.5-10.43,1.05a35.81,35.81,0,0,0-9.32,7.36s-.31.22-2,.25a1.35,1.35,0,0,0-1.27,1.52v.71a18.31,18.31,0,0,1-.13,2.79,1.53,1.53,0,0,0-.72,1,14.72,14.72,0,0,0,.54,4l.08.35h4.25v.07a5.53,5.53,0,0,0,11.06,0v-.07h16.47v0a5.53,5.53,0,1,0,11,0v0h3.94V500Zm-4.85,5.35a3.22,3.22,0,1,1-3.22-3.22A3.22,3.22,0,0,1,1208.52,504.7Zm-8.65-11.35-.45.35H1186.6s-.17-.13-.26-.29v-5.84a2.46,2.46,0,0,1,.68-.18,13.1,13.1,0,0,1,4.63.19C1193.76,488,1197.3,490.1,1199.87,493.35ZM1184,487.66a2,2,0,0,1,.37,0v5.8a1,1,0,0,1-.16.21h-5.45l-1.37-1.26c.24-.7,2.74-3.09,4.38-4A7.56,7.56,0,0,1,1184,487.66Zm-3,17a3.22,3.22,0,1,1-3.22-3.22A3.22,3.22,0,0,1,1181,504.7Z" transform="translate(38 -192)"/><g id="Nature-5" data-name="Nature"><circle class="cls-3" cx="1013.4" cy="518.79" r="4.17" transform="translate(453.93 1295.89) rotate(-85.45)"/><path class="cls-3" d="M1015.68,539.69V529.16a6.78,6.78,0,0,0,11.22-6,6.92,6.92,0,0,0-1.17-2.92,6.79,6.79,0,0,0-5.49-11.79,6.91,6.91,0,0,0-1.66.47,6.78,6.78,0,0,0-13.41,1.87,6.78,6.78,0,0,0-2.92,13,6.68,6.68,0,0,0-.25,3.06,6.77,6.77,0,0,0,11.63,3.66v8.93c-1-2-3-4.18-7.37-5.31,0,0-2,9.09,7.31,9.69a6.48,6.48,0,0,1,.06-.84v3.44h2v-1c12.31.76,11.61-12.06,11.61-12.06C1020.63,534,1017.32,537,1015.68,539.69ZM1006.12,520a7.44,7.44,0,1,1,8.45,6.27A7.44,7.44,0,0,1,1006.12,520Z" transform="translate(38 -192)"/></g><path id="Works-8" data-name="Works" class="cls-3" d="M1060.82,691.87a2.7,2.7,0,0,1-3.79,0l-4.34-4.29a2.68,2.68,0,0,1,0-3.78l6.45-6.55a12.69,12.69,0,0,0-2.92-.34,11.68,11.68,0,0,0-11.92,11.43,11.1,11.1,0,0,0,.62,3.65l-15.26,15.29a5.17,5.17,0,0,0-1.75,3.85,5.32,5.32,0,0,0,5.4,5.24,5.45,5.45,0,0,0,3.84-1.55l15.55-15.57a12.38,12.38,0,0,0,3.52.51,11.68,11.68,0,0,0,11.93-11.42,10.77,10.77,0,0,0-.53-3.38ZM1033.41,713a2.12,2.12,0,1,1,2.12-2.12A2.12,2.12,0,0,1,1033.41,713Z" transform="translate(38 -192)"/><g id="Works-9" data-name="Works"><path class="cls-3" d="M1123.17,431.64h0a32.13,32.13,0,0,1-27.67,15.93v4.31a36.32,36.32,0,0,0,31.4-18.07Z" transform="translate(38 -192)"/><path class="cls-3" d="M1116.65,428a5,5,0,1,1-7.74-4.5l-13.8-8v7.44a3.61,3.61,0,0,1,1.4-.28,3.7,3.7,0,0,1,0,7.39,3.61,3.61,0,0,1-1.4-.28V446a31.35,31.35,0,0,0,26.4-15.2Zm-13.31,14.5a3.14,3.14,0,1,1,3.13-3.14A3.14,3.14,0,0,1,1103.34,442.48Z" transform="translate(38 -192)"/></g><g id="Multimedia-5" data-name="Multimedia"><path class="cls-3" d="M1243.68,294.8l-5.55-1.35-.79-4.39-15.79-3.84-3,3.47-5.55-1.35a1.54,1.54,0,0,0-1.83,1.17l-4.89,20.12a1.53,1.53,0,0,0,1.09,1.88l30.69,7.46a1.54,1.54,0,0,0,1.83-1.17l4.89-20.12A1.54,1.54,0,0,0,1243.68,294.8Zm-20.44,17.41a10.57,10.57,0,1,1,12.33-7.87A10.35,10.35,0,0,1,1223.24,312.21Z" transform="translate(38 -192)"/><path class="cls-3" d="M1227.55,294.32a7.78,7.78,0,0,0-1.33-.2,3.9,3.9,0,0,1,1.86,4.36,3.76,3.76,0,1,1-7.31-1.77,4,4,0,0,1,.33-.88,8,8,0,0,0-2.71,4.33,7.52,7.52,0,1,0,9.16-5.84Z" transform="translate(38 -192)"/></g><path id="Internet-8" data-name="Internet" class="cls-3" d="M981.08,612c-10.37,2.9-10,5.88-10,5.88l8.4,30.08s3.72,1.44,11.39-.7S1001,642,1001,642l-8.4-30.08S991.44,609.15,981.08,612Zm12.67,30.34L986,644.56a.94.94,0,1,1-.5-1.81l7.78-2.18a1,1,0,0,1,1.16.66A.93.93,0,0,1,993.75,642.38Zm2.69-6.44-16.12,4.5-6.07-21.75,16.12-4.5Z" transform="translate(38 -192)"/><g id="Internet-9" data-name="Internet"><path class="cls-3" d="M976.36,397.31H943.64a3.21,3.21,0,0,0-3.21,3.21V422a3.22,3.22,0,0,0,3.21,3.21h32.72a3.23,3.23,0,0,0,3.22-3.21V400.52A3.22,3.22,0,0,0,976.36,397.31ZM962.82,422h-5.63v-1.27h5.63Zm14.07-2.69H943.11V400.52h33.78Z" transform="translate(38 -192)"/><path class="cls-3" d="M963.13,426.18h-6.26l-1.45,1.93h-5.06v.64a1.39,1.39,0,0,0,1.45,1.29h16.38a1.38,1.38,0,0,0,1.45-1.29v-.64h-5.06Z" transform="translate(38 -192)"/></g><path class="cls-3" d="M1076.09,589l-6.82-3a.86.86,0,0,0-1.13.45h0a.86.86,0,0,0,.44,1.13l6.82,3a.86.86,0,0,0,1.13-.45h0A.86.86,0,0,0,1076.09,589Z" transform="translate(38 -192)"/><path class="cls-3" d="M1105.55,587.68a.87.87,0,0,0-1-.63l-7.22,1.79a.87.87,0,0,0-.63,1h0a.86.86,0,0,0,1,.63l7.21-1.79A.86.86,0,0,0,1105.55,587.68Z" transform="translate(38 -192)"/><path class="cls-3" d="M1100.18,567.56a22.56,22.56,0,0,0-.58-8.83l-1.92-7.77a.27.27,0,0,0-.32-.19l-10.7,2.66a.25.25,0,0,0-.19.31l1.92,7.77a22.59,22.59,0,0,0,3.63,8.08c1.4,1.84,2.91,2.82,4.3,2.82a2.82,2.82,0,0,0,.71-.09C1098.61,571.93,1099.73,570.24,1100.18,567.56Zm-7.25,1.33a21.36,21.36,0,0,1-3.42-7.66l-1.65-6.65a.27.27,0,0,1,.19-.32l8.47-2.1a.27.27,0,0,1,.32.19l1.65,6.65h0a21.42,21.42,0,0,1,.55,8.38c-.36,2.16-1.19,3.56-2.29,3.83S1094.26,570.64,1092.93,568.89Z" transform="translate(38 -192)"/><path class="cls-3" d="M1088.43,564a.26.26,0,0,0-.49,0v0a20,20,0,0,1-4.53,6.69c-1.57,1.43-3.07,2-4.1,1.53s-1.65-1.93-1.68-4a19.91,19.91,0,0,1,1.82-7.87l2.62-6a.27.27,0,0,1,.35-.13l3.4,1.48a.25.25,0,0,0,.35-.3l-.19-.77a.23.23,0,0,0-.15-.17l-4-1.75a.26.26,0,0,0-.34.13l-3.08,7.07a21.21,21.21,0,0,0-1.92,8.34c0,2.64.87,4.44,2.37,5.09a3.06,3.06,0,0,0,1.24.26,6.48,6.48,0,0,0,4.1-2,20.8,20.8,0,0,0,4.54-6.5.23.23,0,0,0,0-.2Z" transform="translate(38 -192)"/><path class="cls-3" d="M1079.11,574.12a4.12,4.12,0,0,1-.53-.18,4,4,0,0,1-.5-.27.27.27,0,0,0-.38.12l-5.44,12.48a.27.27,0,0,0,.14.34l1.1.48a.25.25,0,0,0,.34-.13l5.44-12.48A.26.26,0,0,0,1079.11,574.12Z" transform="translate(38 -192)"/><path class="cls-3" d="M1079.1,563.26a16.72,16.72,0,0,0-.79,4.94c0,1.79.51,3.11,1.27,3.44s2.05-.21,3.38-1.41a19.34,19.34,0,0,0,4.35-6.46l.15-.33a.26.26,0,0,0-.24-.37h-7.87A.26.26,0,0,0,1079.1,563.26Z" transform="translate(38 -192)"/><path class="cls-3" d="M1100.15,587.43l1.17-.29a.26.26,0,0,0,.19-.31L1098.08,573a.26.26,0,0,0-.36-.17,3.27,3.27,0,0,1-.53.17,2.63,2.63,0,0,1-.55.09.28.28,0,0,0-.24.33l3.44,13.84A.25.25,0,0,0,1100.15,587.43Z" transform="translate(38 -192)"/><path class="cls-3" d="M1098,560a.26.26,0,0,0-.25-.21h-7.59a.27.27,0,0,0-.25.33l.25,1a20.65,20.65,0,0,0,3.3,7.41c1.12,1.48,2.32,2.27,3.12,2.07s1.48-1.46,1.79-3.29A20.13,20.13,0,0,0,1098,560Z" transform="translate(38 -192)"/><path class="cls-3" d="M1164.93,761h-34.54a.26.26,0,0,0-.26.28,8.57,8.57,0,0,0,1.59,4.61,6.53,6.53,0,0,0,5.38,2.82h21.12a6.54,6.54,0,0,0,5.39-2.82,8.65,8.65,0,0,0,1.59-4.61A.28.28,0,0,0,1164.93,761Z" transform="translate(38 -192)"/><rect class="cls-3" x="1167.1" y="548.06" width="37.34" height="1.17" rx="0.27"/><rect class="cls-3" x="1165.75" y="562.24" width="39.82" height="5.47" rx="2.74"/><path class="cls-3" d="M1165.2,738.61c0-6.47-7.85-11.72-17.54-11.72s-17.54,5.25-17.54,11.72v0a.27.27,0,0,0,.27.26h34.55a.26.26,0,0,0,.26-.26Zm-30-3.08-.43-.25a.56.56,0,0,1-.21-.78v0a.57.57,0,0,1,.78-.21l.44.25a.58.58,0,0,1,.21.78l0,0A.56.56,0,0,1,1135.21,735.53Zm6.19-3.41-.36.35a.57.57,0,0,1-.81,0l0,0a.58.58,0,0,1,0-.81l.36-.35a.58.58,0,0,1,.81,0l0,0A.58.58,0,0,1,1141.4,732.12Zm3.25,3.15-.11-.49a.57.57,0,0,1,.43-.68h0a.56.56,0,0,1,.68.43l.11.49a.57.57,0,0,1-.44.68h0A.57.57,0,0,1,1144.65,735.27Zm3-4.25-.43-.27a.57.57,0,0,1-.18-.79v0a.58.58,0,0,1,.79-.18l.42.27a.57.57,0,0,1,.19.78l0,0A.57.57,0,0,1,1147.68,731Zm4.19,3.84,0,0a.58.58,0,0,1,.07-.81l.39-.32a.57.57,0,0,1,.8.07l0,0a.57.57,0,0,1-.07.8l-.38.33A.58.58,0,0,1,1151.87,734.86Zm4.19-3-.27-.43a.57.57,0,0,1,.18-.79h0a.57.57,0,0,1,.79.18l.27.42a.57.57,0,0,1-.18.79h0A.58.58,0,0,1,1156.06,731.82Zm2.79,4.3-.47-.17a.57.57,0,0,1-.35-.73v0a.58.58,0,0,1,.73-.35l.47.17a.57.57,0,0,1,.35.73v0A.57.57,0,0,1,1158.85,736.12Z" transform="translate(38 -192)"/><rect class="cls-3" x="1168.13" y="557.28" width="35.07" height="3.74" rx="0.29"/><path class="cls-3" d="M1143.48,744.61l1.77-1.56a.28.28,0,0,0-.19-.5h-5.42a.29.29,0,0,0-.19.5l1.77,1.56A2.23,2.23,0,0,0,1143.48,744.61Z" transform="translate(38 -192)"/><path class="cls-3" d="M1164.75,744.6l1.7-1a.29.29,0,0,0,0-.47,2.65,2.65,0,0,0-1.63-.55h-4a.29.29,0,0,0-.19.5l1.77,1.56A2.24,2.24,0,0,0,1164.75,744.6Z" transform="translate(38 -192)"/><path class="cls-3" d="M1132.86,744.61l1.77-1.56a.28.28,0,0,0-.19-.5h-4a2.68,2.68,0,0,0-1.64.55.29.29,0,0,0,0,.47l1.7,1A2.22,2.22,0,0,0,1132.86,744.61Z" transform="translate(38 -192)"/><path class="cls-3" d="M1165.13,745.23a3,3,0,0,1-3.08,0l0,0-2.94-2.59a.32.32,0,0,0-.19-.07h-1.22a.29.29,0,0,0-.18.07l-3,2.59,0,0a3,3,0,0,1-3.08,0l0,0-2.94-2.59a.32.32,0,0,0-.19-.07h-1.22a.29.29,0,0,0-.18.07l-2.95,2.59,0,0a3,3,0,0,1-3.08,0l0,0-2.94-2.59a.32.32,0,0,0-.19-.07h-1.22a.29.29,0,0,0-.18.07l-3,2.59,0,0a3,3,0,0,1-3.08,0l-2.1-1.27a2.71,2.71,0,0,0-.34,1.33h0a2.73,2.73,0,0,0,2.74,2.73h34.35a2.73,2.73,0,0,0,2.73-2.73h0a2.74,2.74,0,0,0-.2-1,.29.29,0,0,0-.41-.14Z" transform="translate(38 -192)"/><path class="cls-3" d="M1154.1,744.61l1.77-1.56a.28.28,0,0,0-.19-.5h-5.42a.29.29,0,0,0-.19.5l1.77,1.56A2.23,2.23,0,0,0,1154.1,744.61Z" transform="translate(38 -192)"/><path id="Transport-18" data-name="Transport" class="cls-3" d="M1752.37,452.35c.23-3.28-.53-3.44-.78-3.5l-8.83-1.89c-2.62-4.09-8.21-8.1-11.62-8.29l-.9-.06c-3-.2-7.57-.5-10.43,1.05a35.81,35.81,0,0,0-9.32,7.36s-.31.22-2,.25a1.35,1.35,0,0,0-1.27,1.52v.71a18.31,18.31,0,0,1-.13,2.79,1.53,1.53,0,0,0-.72,1,14.72,14.72,0,0,0,.54,4l.08.35h4.25v.07a5.53,5.53,0,0,0,11.06,0v-.07h16.47v0a5.53,5.53,0,1,0,11,0v0h3.94V453Zm-4.85,5.35a3.22,3.22,0,1,1-3.22-3.22A3.22,3.22,0,0,1,1747.52,457.7Zm-8.65-11.35-.45.35H1725.6s-.17-.13-.26-.29v-5.84a2.46,2.46,0,0,1,.68-.18,13.1,13.1,0,0,1,4.63.19C1732.76,441,1736.3,443.1,1738.87,446.35ZM1723,440.66a2,2,0,0,1,.37,0v5.8a1,1,0,0,1-.16.21h-5.45l-1.37-1.26c.24-.7,2.74-3.09,4.38-4A7.56,7.56,0,0,1,1723,440.66Zm-3,17a3.22,3.22,0,1,1-3.22-3.22A3.22,3.22,0,0,1,1720,457.7Z" transform="translate(38 -192)"/><g id="Nature-6" data-name="Nature"><circle class="cls-3" cx="1757.4" cy="220.79" r="4.17" transform="translate(1436.03 1763.17) rotate(-85.45)"/><path class="cls-3" d="M1759.68,241.69V231.16a6.78,6.78,0,0,0,11.22-6,6.92,6.92,0,0,0-1.17-2.92,6.79,6.79,0,0,0-5.49-11.79,6.91,6.91,0,0,0-1.66.47,6.78,6.78,0,0,0-13.41,1.87,6.78,6.78,0,0,0-2.92,13,6.68,6.68,0,0,0-.25,3.06,6.77,6.77,0,0,0,11.63,3.66v8.93c-1-2-3-4.18-7.37-5.31,0,0-2,9.09,7.31,9.69a6.48,6.48,0,0,1,.06-.84v3.44h2v-1c12.31.76,11.61-12.06,11.61-12.06C1764.63,236,1761.32,239,1759.68,241.69ZM1750.12,222a7.44,7.44,0,1,1,8.45,6.27A7.44,7.44,0,0,1,1750.12,222Z" transform="translate(38 -192)"/></g><path id="Works-10" data-name="Works" class="cls-3" d="M1804.82,393.87a2.7,2.7,0,0,1-3.79,0l-4.34-4.29a2.68,2.68,0,0,1,0-3.78l6.45-6.55a12.69,12.69,0,0,0-2.92-.34,11.68,11.68,0,0,0-11.92,11.43,11.1,11.1,0,0,0,.62,3.65l-15.26,15.29a5.17,5.17,0,0,0-1.75,3.85,5.32,5.32,0,0,0,5.4,5.24,5.45,5.45,0,0,0,3.84-1.55l15.55-15.57a12.38,12.38,0,0,0,3.52.51,11.68,11.68,0,0,0,11.93-11.42,10.77,10.77,0,0,0-.53-3.38ZM1777.41,415a2.12,2.12,0,1,1,2.12-2.12A2.12,2.12,0,0,1,1777.41,415Z" transform="translate(38 -192)"/><path id="Internet-10" data-name="Internet" class="cls-3" d="M1725.08,314c-10.37,2.9-9.95,5.88-9.95,5.88l8.4,30.08s3.72,1.44,11.39-.7S1745,344,1745,344l-8.4-30.08S1735.44,311.15,1725.08,314Zm12.67,30.34-7.79,2.18a.94.94,0,1,1-.5-1.81l7.78-2.18a1,1,0,0,1,1.16.66A.93.93,0,0,1,1737.75,344.38Zm2.69-6.44-16.12,4.5-6.07-21.75,16.12-4.5Z" transform="translate(38 -192)"/><path class="cls-3" d="M1820.09,291l-6.82-3a.86.86,0,0,0-1.13.45h0a.86.86,0,0,0,.44,1.13l6.82,3a.86.86,0,0,0,1.13-.45h0A.86.86,0,0,0,1820.09,291Z" transform="translate(38 -192)"/><path class="cls-3" d="M1849.55,289.68a.87.87,0,0,0-1-.63l-7.22,1.79a.87.87,0,0,0-.63,1h0a.86.86,0,0,0,1,.63l7.21-1.79A.86.86,0,0,0,1849.55,289.68Z" transform="translate(38 -192)"/><path class="cls-3" d="M1844.18,269.56a22.56,22.56,0,0,0-.58-8.83l-1.92-7.77a.27.27,0,0,0-.32-.19l-10.7,2.66a.25.25,0,0,0-.19.31l1.92,7.77a22.59,22.59,0,0,0,3.63,8.08c1.4,1.84,2.91,2.82,4.3,2.82a2.82,2.82,0,0,0,.71-.09C1842.61,273.93,1843.73,272.24,1844.18,269.56Zm-7.25,1.33a21.36,21.36,0,0,1-3.42-7.66l-1.65-6.65a.27.27,0,0,1,.19-.32l8.47-2.1a.27.27,0,0,1,.32.19l1.65,6.65h0a21.42,21.42,0,0,1,.55,8.38c-.36,2.16-1.19,3.56-2.29,3.83S1838.26,272.64,1836.93,270.89Z" transform="translate(38 -192)"/><path class="cls-3" d="M1832.43,266a.26.26,0,0,0-.49,0v0a20,20,0,0,1-4.53,6.69c-1.57,1.43-3.07,2-4.1,1.53s-1.65-1.93-1.68-4.05a19.91,19.91,0,0,1,1.82-7.87l2.62-6a.27.27,0,0,1,.35-.13l3.4,1.48a.25.25,0,0,0,.35-.3l-.19-.77a.23.23,0,0,0-.15-.17l-4-1.75a.26.26,0,0,0-.34.13l-3.08,7.07a21.21,21.21,0,0,0-1.92,8.34c0,2.64.87,4.44,2.37,5.09a3.06,3.06,0,0,0,1.24.26,6.48,6.48,0,0,0,4.1-2,20.8,20.8,0,0,0,4.54-6.5.23.23,0,0,0,0-.2Z" transform="translate(38 -192)"/><path class="cls-3" d="M1823.11,276.12a4.12,4.12,0,0,1-.53-.18,4,4,0,0,1-.5-.27.27.27,0,0,0-.38.12l-5.44,12.48a.27.27,0,0,0,.14.34l1.1.48a.25.25,0,0,0,.34-.13l5.44-12.48A.26.26,0,0,0,1823.11,276.12Z" transform="translate(38 -192)"/><path class="cls-3" d="M1823.1,265.26a16.72,16.72,0,0,0-.79,4.94c0,1.79.51,3.11,1.27,3.44s2.05-.21,3.38-1.41a19.34,19.34,0,0,0,4.35-6.46l.15-.33a.26.26,0,0,0-.24-.37h-7.87A.26.26,0,0,0,1823.1,265.26Z" transform="translate(38 -192)"/><path class="cls-3" d="M1844.15,289.43l1.17-.29a.26.26,0,0,0,.19-.31L1842.08,275a.26.26,0,0,0-.36-.17,3.27,3.27,0,0,1-.53.17,2.63,2.63,0,0,1-.55.09.28.28,0,0,0-.24.33l3.44,13.84A.25.25,0,0,0,1844.15,289.43Z" transform="translate(38 -192)"/><path class="cls-3" d="M1842,262a.26.26,0,0,0-.25-.21h-7.59a.27.27,0,0,0-.25.33l.25,1a20.65,20.65,0,0,0,3.3,7.41c1.12,1.48,2.32,2.27,3.12,2.07s1.48-1.46,1.79-3.29A20.13,20.13,0,0,0,1842,262Z" transform="translate(38 -192)"/><path class="cls-3" d="M1920.93,432h-34.54a.26.26,0,0,0-.26.28,8.57,8.57,0,0,0,1.59,4.61,6.53,6.53,0,0,0,5.38,2.82h21.12a6.54,6.54,0,0,0,5.39-2.82,8.65,8.65,0,0,0,1.59-4.61A.28.28,0,0,0,1920.93,432Z" transform="translate(38 -192)"/><rect class="cls-3" x="1923.1" y="219.06" width="37.34" height="1.17" rx="0.27"/><rect class="cls-3" x="1921.75" y="233.24" width="39.82" height="5.47" rx="2.74"/><path class="cls-3" d="M1921.2,409.61c0-6.47-7.85-11.72-17.54-11.72s-17.54,5.25-17.54,11.72v0a.27.27,0,0,0,.27.26h34.55a.26.26,0,0,0,.26-.26Zm-30-3.08-.43-.25a.56.56,0,0,1-.21-.78v0a.57.57,0,0,1,.78-.21l.44.25a.58.58,0,0,1,.21.78l0,0A.56.56,0,0,1,1891.21,406.53Zm6.19-3.41-.36.35a.57.57,0,0,1-.81,0l0,0a.58.58,0,0,1,0-.81l.36-.35a.58.58,0,0,1,.81,0l0,0A.58.58,0,0,1,1897.4,403.12Zm3.25,3.15-.11-.49a.57.57,0,0,1,.43-.68h0a.56.56,0,0,1,.68.43l.11.49a.57.57,0,0,1-.44.68h0A.57.57,0,0,1,1900.65,406.27Zm3-4.25-.43-.27a.57.57,0,0,1-.18-.79v0a.58.58,0,0,1,.79-.18l.42.27a.57.57,0,0,1,.19.78l0,0A.57.57,0,0,1,1903.68,402Zm4.19,3.84,0,0a.58.58,0,0,1,.07-.81l.39-.32a.57.57,0,0,1,.8.07l0,0a.57.57,0,0,1-.07.8l-.38.33A.58.58,0,0,1,1907.87,405.86Zm4.19-3-.27-.43a.57.57,0,0,1,.18-.79h0a.57.57,0,0,1,.79.18l.27.42a.57.57,0,0,1-.18.79h0A.58.58,0,0,1,1912.06,402.82Zm2.79,4.3-.47-.17a.57.57,0,0,1-.35-.73v0a.58.58,0,0,1,.73-.35l.47.17a.57.57,0,0,1,.35.73v0A.57.57,0,0,1,1914.85,407.12Z" transform="translate(38 -192)"/><rect class="cls-3" x="1924.13" y="228.28" width="35.07" height="3.74" rx="0.29"/><path class="cls-3" d="M1899.48,415.61l1.77-1.56a.28.28,0,0,0-.19-.5h-5.42a.29.29,0,0,0-.19.5l1.77,1.56A2.23,2.23,0,0,0,1899.48,415.61Z" transform="translate(38 -192)"/><path class="cls-3" d="M1920.75,415.6l1.7-1a.29.29,0,0,0,0-.47,2.65,2.65,0,0,0-1.63-.55h-4a.29.29,0,0,0-.19.5l1.77,1.56A2.24,2.24,0,0,0,1920.75,415.6Z" transform="translate(38 -192)"/><path class="cls-3" d="M1888.86,415.61l1.77-1.56a.28.28,0,0,0-.19-.5h-4a2.68,2.68,0,0,0-1.64.55.29.29,0,0,0,0,.47l1.7,1A2.22,2.22,0,0,0,1888.86,415.61Z" transform="translate(38 -192)"/><path class="cls-3" d="M1921.13,416.23a3,3,0,0,1-3.08,0l0,0-2.94-2.59a.32.32,0,0,0-.19-.07h-1.22a.29.29,0,0,0-.18.07l-3,2.59,0,0a3,3,0,0,1-3.08,0l0,0-2.94-2.59a.32.32,0,0,0-.19-.07h-1.22a.29.29,0,0,0-.18.07l-2.95,2.59,0,0a3,3,0,0,1-3.08,0l0,0-2.94-2.59a.32.32,0,0,0-.19-.07h-1.22a.29.29,0,0,0-.18.07l-3,2.59,0,0a3,3,0,0,1-3.08,0l-2.1-1.27a2.71,2.71,0,0,0-.34,1.33h0a2.73,2.73,0,0,0,2.74,2.73h34.35a2.73,2.73,0,0,0,2.73-2.73h0a2.74,2.74,0,0,0-.2-1,.29.29,0,0,0-.41-.14Z" transform="translate(38 -192)"/><path class="cls-3" d="M1910.1,415.61l1.77-1.56a.28.28,0,0,0-.19-.5h-5.42a.29.29,0,0,0-.19.5l1.77,1.56A2.23,2.23,0,0,0,1910.1,415.61Z" transform="translate(38 -192)"/><g id="Transport-19" data-name="Transport"><path class="cls-3" d="M1843.89,515.49c-1.16-2.14-7.7-.82-9.84.34l-5.41,2.95-13.12-10.46-3.81,2.07,10,12.15-7.49,4.08-7.47-3.49-3.81,2.08,8.61,7.8,1.8,11.33,3.81-2.08,1.14-7.83,7.61-4.15,4.64,14.75,3.81-2.08-1.55-16.43,5.44-2.95C1840.4,522.4,1845.05,517.62,1843.89,515.49Z" transform="translate(38 -192)"/></g><g id="Transport-20" data-name="Transport"><path class="cls-3" d="M1835.58,659.7l-.45.46a2.06,2.06,0,0,1-2.89,0L1820,648.1l-4.13.24-15-14.47c-1.62-3.34-1.35-7.24-.56-8l.46-.46a2,2,0,0,1,2.89,0l31.88,31.46A2,2,0,0,1,1835.58,659.7Z" transform="translate(38 -192)"/><path class="cls-3" d="M1810.32,645.47l-11.9,12.08a2,2,0,0,0,0,2.89l.46.46a2,2,0,0,0,2.89,0l11.88-12Z" transform="translate(38 -192)"/><path class="cls-3" d="M1834.58,630.21h0a1.12,1.12,0,0,0-1.64-.16l-7.38,7.4a1,1,0,0,1-1.19-.12,1,1,0,0,1,.09-1.42h0l0,0h0l7-7a1.31,1.31,0,0,0,0-1.76h0a1.12,1.12,0,0,0-1.64-.15l-7.44,7.46a.94.94,0,0,1-1.46-1.13l7.24-7.25a1.33,1.33,0,0,0-.05-1.76h0a1.13,1.13,0,0,0-1.64-.15l-8.15,8.16,0,0-.38.38c-1.14,1.15-.8,4,.4,5.21l2.26,2.21c1.2,1.17,4.26,1.6,5.39.46l.26-.25a1.26,1.26,0,0,0,.28-.19l8.14-8.17A1.31,1.31,0,0,0,1834.58,630.21Z" transform="translate(38 -192)"/></g><g id="Transport-21" data-name="Transport"><polygon class="cls-3" points="1942.15 413.43 1934.54 410.25 1918.61 410.25 1911.71 408.12 1911.87 410.77 1918.61 415.91 1918.61 432.72 1921.27 432.72 1923.15 424.49 1937.38 424.23 1939.32 432.72 1942.15 432.72 1942.15 413.43"/><polygon class="cls-3" points="1948.35 410.25 1941.53 410.25 1934.72 406.53 1934.72 396.62 1938.75 401.11 1950.29 405.47 1948.35 410.25"/></g><g id="Works-11" data-name="Works"><path class="cls-3" d="M1901.17,719.64h0a32.13,32.13,0,0,1-27.67,15.93v4.31a36.32,36.32,0,0,0,31.4-18.07Z" transform="translate(38 -192)"/><path class="cls-3" d="M1894.65,716a5,5,0,1,1-7.74-4.5l-13.8-8v7.44a3.61,3.61,0,0,1,1.4-.28,3.7,3.7,0,0,1,0,7.39,3.61,3.61,0,0,1-1.4-.28V734a31.35,31.35,0,0,0,26.4-15.2Zm-13.31,14.5a3.14,3.14,0,1,1,3.13-3.14A3.14,3.14,0,0,1,1881.34,730.48Z" transform="translate(38 -192)"/></g><g id="Internet-11" data-name="Internet"><path class="cls-3" d="M1754.36,685.31h-32.72a3.21,3.21,0,0,0-3.21,3.21V710a3.22,3.22,0,0,0,3.21,3.21h32.72a3.23,3.23,0,0,0,3.22-3.21V688.52A3.22,3.22,0,0,0,1754.36,685.31ZM1740.82,710h-5.63v-1.27h5.63Zm14.07-2.69h-33.78V688.52h33.78Z" transform="translate(38 -192)"/><path class="cls-3" d="M1741.13,714.18h-6.26l-1.45,1.93h-5.06v.64a1.39,1.39,0,0,0,1.45,1.29h16.38a1.38,1.38,0,0,0,1.45-1.29v-.64h-5.06Z" transform="translate(38 -192)"/></g><path class="cls-3" d="M1490.93,457h-34.54a.26.26,0,0,0-.26.28,8.57,8.57,0,0,0,1.59,4.61,6.53,6.53,0,0,0,5.38,2.82h21.12a6.54,6.54,0,0,0,5.39-2.82,8.65,8.65,0,0,0,1.59-4.61A.28.28,0,0,0,1490.93,457Z" transform="translate(38 -192)"/><rect class="cls-3" x="1493.1" y="244.06" width="37.34" height="1.17" rx="0.27"/><rect class="cls-3" x="1491.75" y="258.24" width="39.82" height="5.47" rx="2.74"/><path class="cls-3" d="M1491.2,434.61c0-6.47-7.85-11.72-17.54-11.72s-17.54,5.25-17.54,11.72v0a.27.27,0,0,0,.27.26h34.55a.26.26,0,0,0,.26-.26Zm-30-3.08-.43-.25a.56.56,0,0,1-.21-.78v0a.57.57,0,0,1,.78-.21l.44.25a.58.58,0,0,1,.21.78l0,0A.56.56,0,0,1,1461.21,431.53Zm6.19-3.41-.36.35a.57.57,0,0,1-.81,0l0,0a.58.58,0,0,1,0-.81l.36-.35a.58.58,0,0,1,.81,0l0,0A.58.58,0,0,1,1467.4,428.12Zm3.25,3.15-.11-.49a.57.57,0,0,1,.43-.68h0a.56.56,0,0,1,.68.43l.11.49a.57.57,0,0,1-.44.68h0A.57.57,0,0,1,1470.65,431.27Zm3-4.25-.43-.27a.57.57,0,0,1-.18-.79v0a.58.58,0,0,1,.79-.18l.42.27a.57.57,0,0,1,.19.78l0,0A.57.57,0,0,1,1473.68,427Zm4.19,3.84,0,0a.58.58,0,0,1,.07-.81l.39-.32a.57.57,0,0,1,.8.07l0,0a.57.57,0,0,1-.07.8l-.38.33A.58.58,0,0,1,1477.87,430.86Zm4.19-3-.27-.43a.57.57,0,0,1,.18-.79h0a.57.57,0,0,1,.79.18l.27.42a.57.57,0,0,1-.18.79h0A.58.58,0,0,1,1482.06,427.82Zm2.79,4.3-.47-.17a.57.57,0,0,1-.35-.73v0a.58.58,0,0,1,.73-.35l.47.17a.57.57,0,0,1,.35.73v0A.57.57,0,0,1,1484.85,432.12Z" transform="translate(38 -192)"/><rect class="cls-3" x="1494.13" y="253.28" width="35.07" height="3.74" rx="0.29"/><path class="cls-3" d="M1469.48,440.61l1.77-1.56a.28.28,0,0,0-.19-.5h-5.42a.29.29,0,0,0-.19.5l1.77,1.56A2.23,2.23,0,0,0,1469.48,440.61Z" transform="translate(38 -192)"/><path class="cls-3" d="M1490.75,440.6l1.7-1a.29.29,0,0,0,0-.47,2.65,2.65,0,0,0-1.63-.55h-4a.29.29,0,0,0-.19.5l1.77,1.56A2.24,2.24,0,0,0,1490.75,440.6Z" transform="translate(38 -192)"/><path class="cls-3" d="M1458.86,440.61l1.77-1.56a.28.28,0,0,0-.19-.5h-4a2.68,2.68,0,0,0-1.64.55.29.29,0,0,0,0,.47l1.7,1A2.22,2.22,0,0,0,1458.86,440.61Z" transform="translate(38 -192)"/><path class="cls-3" d="M1491.13,441.23a3,3,0,0,1-3.08,0l0,0-2.94-2.59a.32.32,0,0,0-.19-.07h-1.22a.29.29,0,0,0-.18.07l-3,2.59,0,0a3,3,0,0,1-3.08,0l0,0-2.94-2.59a.32.32,0,0,0-.19-.07h-1.22a.29.29,0,0,0-.18.07l-2.95,2.59,0,0a3,3,0,0,1-3.08,0l0,0-2.94-2.59a.32.32,0,0,0-.19-.07h-1.22a.29.29,0,0,0-.18.07l-3,2.59,0,0a3,3,0,0,1-3.08,0l-2.1-1.27a2.71,2.71,0,0,0-.34,1.33h0a2.73,2.73,0,0,0,2.74,2.73h34.35a2.73,2.73,0,0,0,2.73-2.73h0a2.74,2.74,0,0,0-.2-1,.29.29,0,0,0-.41-.14Z" transform="translate(38 -192)"/><path class="cls-3" d="M1480.1,440.61l1.77-1.56a.28.28,0,0,0-.19-.5h-5.42a.29.29,0,0,0-.19.5l1.77,1.56A2.23,2.23,0,0,0,1480.1,440.61Z" transform="translate(38 -192)"/><g id="Transport-22" data-name="Transport"><path class="cls-3" d="M1472.89,548.49c-1.16-2.14-7.7-.82-9.84.34l-5.41,2.95-13.12-10.46-3.81,2.07,10,12.15-7.49,4.08-7.47-3.49-3.81,2.08,8.61,7.8,1.8,11.33,3.81-2.08,1.14-7.83,7.61-4.15,4.64,14.75,3.81-2.08-1.55-16.43,5.44-2.95C1469.4,555.4,1474.05,550.62,1472.89,548.49Z" transform="translate(38 -192)"/></g><g id="Transport-23" data-name="Transport"><path class="cls-3" d="M1540.58,363.7l-.45.46a2.06,2.06,0,0,1-2.89,0L1525,352.1l-4.13.24-15-14.47c-1.62-3.34-1.35-7.24-.56-8l.46-.46a2,2,0,0,1,2.89,0l31.88,31.46A2,2,0,0,1,1540.58,363.7Z" transform="translate(38 -192)"/><path class="cls-3" d="M1515.32,349.47l-11.9,12.08a2,2,0,0,0,0,2.89l.46.46a2,2,0,0,0,2.89,0l11.88-12.05Z" transform="translate(38 -192)"/><path class="cls-3" d="M1539.58,334.21h0a1.12,1.12,0,0,0-1.64-.16l-7.38,7.4a1,1,0,0,1-1.19-.12,1,1,0,0,1,.09-1.42h0l0,0h0l7-7a1.31,1.31,0,0,0,0-1.76h0a1.12,1.12,0,0,0-1.64-.15l-7.44,7.46a.94.94,0,0,1-1.46-1.13l7.24-7.25a1.33,1.33,0,0,0-.05-1.76h0a1.13,1.13,0,0,0-1.64-.15l-8.15,8.16,0,.05-.38.38c-1.14,1.15-.8,4,.4,5.21l2.26,2.21c1.2,1.17,4.26,1.6,5.39.46l.26-.25a1.26,1.26,0,0,0,.28-.19l8.14-8.17A1.31,1.31,0,0,0,1539.58,334.21Z" transform="translate(38 -192)"/></g><g id="Transport-24" data-name="Transport"><polygon class="cls-3" points="1616.15 395.43 1608.54 392.25 1592.61 392.25 1585.71 390.12 1585.87 392.77 1592.61 397.91 1592.61 414.72 1595.27 414.72 1597.15 406.49 1611.38 406.23 1613.32 414.72 1616.15 414.72 1616.15 395.43"/><polygon class="cls-3" points="1622.35 392.25 1615.53 392.25 1608.72 388.53 1608.72 378.62 1612.75 383.11 1624.29 387.47 1622.35 392.25"/></g><g id="Nature-7" data-name="Nature"><circle class="cls-3" cx="1638.4" cy="403.79" r="4.17" transform="translate(1144.03 1813.04) rotate(-85.45)"/><path class="cls-3" d="M1640.68,424.69V414.16a6.78,6.78,0,0,0,11.22-6.05,6.92,6.92,0,0,0-1.17-2.92,6.79,6.79,0,0,0-5.49-11.79,6.91,6.91,0,0,0-1.66.47,6.78,6.78,0,0,0-13.41,1.87,6.78,6.78,0,0,0-2.92,13,6.68,6.68,0,0,0-.25,3.06,6.77,6.77,0,0,0,11.63,3.66v8.93c-1-2-3-4.18-7.37-5.31,0,0-2,9.09,7.31,9.69a6.48,6.48,0,0,1,.06-.84v3.44h2v-1c12.31.76,11.61-12.06,11.61-12.06C1645.63,419,1642.32,422,1640.68,424.69ZM1631.12,405a7.44,7.44,0,1,1,8.45,6.27A7.44,7.44,0,0,1,1631.12,405Z" transform="translate(38 -192)"/></g><g id="Works-12" data-name="Works"><path class="cls-3" d="M1635.17,696.64h0a32.13,32.13,0,0,1-27.67,15.93v4.31a36.32,36.32,0,0,0,31.4-18.07Z" transform="translate(38 -192)"/><path class="cls-3" d="M1628.65,693a5,5,0,1,1-7.74-4.5l-13.8-8v7.44a3.61,3.61,0,0,1,1.4-.28,3.7,3.7,0,0,1,0,7.39,3.61,3.61,0,0,1-1.4-.28V711a31.35,31.35,0,0,0,26.4-15.2Zm-13.31,14.5a3.14,3.14,0,1,1,3.13-3.14A3.14,3.14,0,0,1,1615.34,707.48Z" transform="translate(38 -192)"/></g><g id="Multimedia-6" data-name="Multimedia"><path class="cls-3" d="M1695.68,564.8l-5.55-1.35-.79-4.39-15.79-3.84-3,3.47-5.55-1.35a1.54,1.54,0,0,0-1.83,1.17l-4.89,20.12a1.53,1.53,0,0,0,1.09,1.88l30.69,7.46a1.54,1.54,0,0,0,1.83-1.17l4.89-20.12A1.54,1.54,0,0,0,1695.68,564.8Zm-20.44,17.41a10.57,10.57,0,1,1,12.33-7.87A10.35,10.35,0,0,1,1675.24,582.21Z" transform="translate(38 -192)"/><path class="cls-3" d="M1679.55,564.32a7.78,7.78,0,0,0-1.33-.2,3.9,3.9,0,0,1,1.86,4.36,3.76,3.76,0,1,1-7.31-1.77,4,4,0,0,1,.33-.88,8,8,0,0,0-2.71,4.33,7.52,7.52,0,1,0,9.16-5.84Z" transform="translate(38 -192)"/></g><g id="Internet-12" data-name="Internet"><path class="cls-3" d="M1401.36,700.31h-32.72a3.21,3.21,0,0,0-3.21,3.21V725a3.22,3.22,0,0,0,3.21,3.21h32.72a3.23,3.23,0,0,0,3.22-3.21V703.52A3.22,3.22,0,0,0,1401.36,700.31ZM1387.82,725h-5.63v-1.27h5.63Zm14.07-2.69h-33.78V703.52h33.78Z" transform="translate(38 -192)"/><path class="cls-3" d="M1388.13,729.18h-6.26l-1.45,1.93h-5.06v.64a1.39,1.39,0,0,0,1.45,1.29h16.38a1.38,1.38,0,0,0,1.45-1.29v-.64h-5.06Z" transform="translate(38 -192)"/></g><g id="Transport-25" data-name="Transport"><path class="cls-3" d="M1307,223c-1.16-2.14-7.7-.82-9.84.34l-5.41,2.95-13.12-10.46-3.81,2.07,10,12.15-7.49,4.08-7.47-3.49-3.81,2.08,8.61,7.8,1.8,11.33,3.81-2.08,1.14-7.83,7.61-4.15,4.64,14.75,3.81-2.08L1295.92,234l5.44-3C1303.5,229.9,1308.15,225.12,1307,223Z" transform="translate(38 -192)"/></g><g id="Transport-26" data-name="Transport"><path class="cls-3" d="M1343.68,316.2l-.45.46a2.06,2.06,0,0,1-2.89,0L1328.1,304.6l-4.13.24-15-14.47c-1.62-3.34-1.35-7.24-.56-8l.46-.46a2,2,0,0,1,2.89,0l31.88,31.46A2,2,0,0,1,1343.68,316.2Z" transform="translate(38 -192)"/><path class="cls-3" d="M1318.42,302l-11.9,12.08a2,2,0,0,0,0,2.89l.46.46a2,2,0,0,0,2.89,0l11.88-12.05Z" transform="translate(38 -192)"/><path class="cls-3" d="M1342.68,286.71h0a1.12,1.12,0,0,0-1.64-.16l-7.38,7.4a1,1,0,0,1-1.19-.12,1,1,0,0,1,.09-1.42h0l0,0h0l7-7a1.31,1.31,0,0,0,0-1.76h0a1.12,1.12,0,0,0-1.64-.15l-7.44,7.46a.94.94,0,0,1-1.46-1.13l7.24-7.25a1.33,1.33,0,0,0,0-1.76h0a1.13,1.13,0,0,0-1.64-.15l-8.15,8.16,0,.05-.38.38c-1.14,1.15-.8,4,.4,5.21l2.26,2.21c1.2,1.17,4.26,1.6,5.39.46l.26-.25a1.26,1.26,0,0,0,.28-.19l8.14-8.17A1.31,1.31,0,0,0,1342.68,286.71Z" transform="translate(38 -192)"/></g><path id="Transport-27" data-name="Transport" class="cls-3" d="M1294.47,694.85c.23-3.28-.53-3.44-.78-3.5l-8.83-1.89c-2.62-4.09-8.21-8.1-11.62-8.29l-.9-.06c-3-.2-7.57-.5-10.43,1a35.81,35.81,0,0,0-9.32,7.36s-.31.22-2,.25a1.35,1.35,0,0,0-1.27,1.52V692a18.31,18.31,0,0,1-.13,2.79,1.53,1.53,0,0,0-.72,1,14.72,14.72,0,0,0,.54,4l.08.35h4.25v.07a5.53,5.53,0,0,0,11.06,0v-.07h16.47v0a5.53,5.53,0,1,0,11.05,0v0h3.94v-4.63Zm-4.85,5.35a3.22,3.22,0,1,1-3.22-3.22A3.22,3.22,0,0,1,1289.62,700.2ZM1281,688.85l-.45.35H1267.7s-.17-.13-.26-.29v-5.84a2.46,2.46,0,0,1,.68-.18,13.1,13.1,0,0,1,4.63.19C1274.86,683.46,1278.4,685.6,1281,688.85Zm-15.85-5.69a2,2,0,0,1,.37,0V689a1,1,0,0,1-.16.21h-5.45l-1.37-1.26c.24-.7,2.74-3.09,4.38-4A7.56,7.56,0,0,1,1265.12,683.16Zm-3,17a3.22,3.22,0,1,1-3.22-3.22A3.22,3.22,0,0,1,1262.09,700.2Z" transform="translate(38 -192)"/><g id="Transport-28" data-name="Transport"><polygon class="cls-3" points="1450.25 69.93 1442.64 66.75 1426.71 66.75 1419.81 64.62 1419.97 67.27 1426.71 72.41 1426.71 89.22 1429.37 89.22 1431.25 80.99 1445.48 80.73 1447.41 89.22 1450.25 89.22 1450.25 69.93"/><polygon class="cls-3" points="1456.44 66.75 1449.63 66.75 1442.82 63.03 1442.82 53.12 1446.85 57.61 1458.39 61.97 1456.44 66.75"/></g><g id="Nature-8" data-name="Nature"><circle class="cls-3" cx="1299.5" cy="463.29" r="4.17" transform="translate(772.68 1529.99) rotate(-85.45)"/><path class="cls-3" d="M1301.78,484.19V473.66a6.78,6.78,0,0,0,11.22-6.05,6.92,6.92,0,0,0-1.17-2.92,6.79,6.79,0,0,0-5.49-11.79,6.91,6.91,0,0,0-1.66.47,6.78,6.78,0,0,0-13.41,1.87,6.78,6.78,0,0,0-2.92,13,6.68,6.68,0,0,0-.25,3.06,6.77,6.77,0,0,0,11.63,3.66v8.93c-1-2-3-4.18-7.37-5.31,0,0-1.95,9.09,7.31,9.69a6.48,6.48,0,0,1,.06-.84v3.44h2v-1c12.31.76,11.61-12.06,11.61-12.06C1306.73,478.48,1303.42,481.48,1301.78,484.19Zm-9.56-19.74a7.44,7.44,0,1,1,8.45,6.27A7.44,7.44,0,0,1,1292.22,464.45Z" transform="translate(38 -192)"/></g><path id="Works-13" data-name="Works" class="cls-3" d="M1346.92,636.37a2.7,2.7,0,0,1-3.79,0l-4.34-4.29a2.68,2.68,0,0,1,0-3.78l6.45-6.55a12.69,12.69,0,0,0-2.92-.34,11.68,11.68,0,0,0-11.92,11.43,11.1,11.1,0,0,0,.62,3.65l-15.26,15.29a5.17,5.17,0,0,0-1.75,3.85,5.32,5.32,0,0,0,5.4,5.24,5.45,5.45,0,0,0,3.84-1.55l15.55-15.57a12.38,12.38,0,0,0,3.52.51,11.68,11.68,0,0,0,11.93-11.42,10.77,10.77,0,0,0-.53-3.38Zm-27.41,21.08a2.12,2.12,0,1,1,2.12-2.12A2.12,2.12,0,0,1,1319.51,657.45Z" transform="translate(38 -192)"/><g id="Works-14" data-name="Works"><path class="cls-3" d="M1409.27,376.14h0a32.13,32.13,0,0,1-27.67,15.93v4.31a36.32,36.32,0,0,0,31.4-18.07Z" transform="translate(38 -192)"/><path class="cls-3" d="M1402.75,372.48A5,5,0,1,1,1395,368l-13.8-8v7.44a3.61,3.61,0,0,1,1.4-.28,3.7,3.7,0,0,1,0,7.39,3.61,3.61,0,0,1-1.4-.28V390.5a31.35,31.35,0,0,0,26.4-15.2ZM1389.44,387a3.14,3.14,0,1,1,3.13-3.14A3.14,3.14,0,0,1,1389.44,387Z" transform="translate(38 -192)"/></g><g id="Multimedia-7" data-name="Multimedia"><path class="cls-3" d="M1529.78,239.3l-5.55-1.35-.79-4.39-15.79-3.84-3,3.47-5.55-1.35a1.54,1.54,0,0,0-1.83,1.17l-4.89,20.12a1.53,1.53,0,0,0,1.09,1.88l30.69,7.46a1.54,1.54,0,0,0,1.83-1.17l4.89-20.12A1.54,1.54,0,0,0,1529.78,239.3Zm-20.44,17.41a10.57,10.57,0,1,1,12.33-7.87A10.35,10.35,0,0,1,1509.34,256.71Z" transform="translate(38 -192)"/><path class="cls-3" d="M1513.65,238.82a7.78,7.78,0,0,0-1.33-.2,3.9,3.9,0,0,1,1.86,4.36,3.76,3.76,0,1,1-7.31-1.77,4,4,0,0,1,.33-.88,8,8,0,0,0-2.71,4.33,7.52,7.52,0,1,0,9.16-5.84Z" transform="translate(38 -192)"/></g><path id="Internet-13" data-name="Internet" class="cls-3" d="M1267.18,556.54c-10.37,2.9-10,5.88-10,5.88l8.4,30.08s3.72,1.44,11.39-.7,10.11-5.3,10.11-5.3l-8.4-30.08S1277.54,553.65,1267.18,556.54Zm12.67,30.34-7.79,2.18a.94.94,0,1,1-.5-1.81l7.78-2.18a1,1,0,0,1,1.16.66A.93.93,0,0,1,1279.85,586.88Zm2.69-6.44-16.12,4.5-6.07-21.75,16.12-4.5Z" transform="translate(38 -192)"/><g id="Internet-14" data-name="Internet"><path class="cls-3" d="M1262.46,341.81h-32.72a3.21,3.21,0,0,0-3.21,3.21v21.46a3.22,3.22,0,0,0,3.21,3.21h32.72a3.23,3.23,0,0,0,3.22-3.21V345A3.22,3.22,0,0,0,1262.46,341.81Zm-13.54,24.67h-5.63v-1.27h5.63Zm14.07-2.69h-33.78V345H1263Z" transform="translate(38 -192)"/><path class="cls-3" d="M1249.23,370.68H1243l-1.45,1.93h-5.06v.64a1.39,1.39,0,0,0,1.45,1.29h16.38a1.38,1.38,0,0,0,1.45-1.29v-.64h-5.06Z" transform="translate(38 -192)"/></g><path class="cls-3" d="M1362.19,533.46l-6.82-3a.86.86,0,0,0-1.13.45h0a.86.86,0,0,0,.44,1.13l6.82,3a.86.86,0,0,0,1.13-.45h0A.86.86,0,0,0,1362.19,533.46Z" transform="translate(38 -192)"/><path class="cls-3" d="M1391.65,532.18a.87.87,0,0,0-1-.63l-7.22,1.79a.87.87,0,0,0-.63,1h0a.86.86,0,0,0,1,.63l7.21-1.79A.86.86,0,0,0,1391.65,532.18Z" transform="translate(38 -192)"/><path class="cls-3" d="M1386.28,512.06a22.56,22.56,0,0,0-.58-8.83l-1.92-7.77a.27.27,0,0,0-.32-.19l-10.7,2.66a.25.25,0,0,0-.19.31l1.92,7.77a22.59,22.59,0,0,0,3.63,8.08c1.4,1.84,2.91,2.82,4.3,2.82a2.82,2.82,0,0,0,.71-.09C1384.71,516.43,1385.83,514.74,1386.28,512.06Zm-7.25,1.33a21.36,21.36,0,0,1-3.42-7.66l-1.65-6.65a.27.27,0,0,1,.19-.32l8.47-2.1a.27.27,0,0,1,.32.19l1.65,6.65h0a21.42,21.42,0,0,1,.55,8.38c-.36,2.16-1.19,3.56-2.29,3.83S1380.36,515.14,1379,513.39Z" transform="translate(38 -192)"/><path class="cls-3" d="M1374.53,508.54a.26.26,0,0,0-.49,0v0a20,20,0,0,1-4.53,6.69c-1.57,1.43-3.07,2-4.1,1.53s-1.65-1.93-1.68-4a19.91,19.91,0,0,1,1.82-7.87l2.62-6a.27.27,0,0,1,.35-.13l3.4,1.48a.25.25,0,0,0,.35-.3l-.19-.77a.23.23,0,0,0-.15-.17l-4-1.75a.26.26,0,0,0-.34.13l-3.08,7.07a21.21,21.21,0,0,0-1.92,8.34c0,2.64.87,4.44,2.37,5.09a3.06,3.06,0,0,0,1.24.26,6.48,6.48,0,0,0,4.1-2,20.8,20.8,0,0,0,4.54-6.5.23.23,0,0,0,0-.2Z" transform="translate(38 -192)"/><path class="cls-3" d="M1365.21,518.62a4.12,4.12,0,0,1-.53-.18,4,4,0,0,1-.5-.27.27.27,0,0,0-.38.12l-5.44,12.48a.27.27,0,0,0,.14.34l1.1.48a.25.25,0,0,0,.34-.13l5.44-12.48A.26.26,0,0,0,1365.21,518.62Z" transform="translate(38 -192)"/><path class="cls-3" d="M1365.2,507.76a16.72,16.72,0,0,0-.79,4.94c0,1.79.51,3.11,1.27,3.44s2-.21,3.38-1.41a19.34,19.34,0,0,0,4.35-6.46l.15-.33a.26.26,0,0,0-.24-.37h-7.87A.26.26,0,0,0,1365.2,507.76Z" transform="translate(38 -192)"/><path class="cls-3" d="M1386.25,531.93l1.17-.29a.26.26,0,0,0,.19-.31l-3.43-13.85a.26.26,0,0,0-.36-.17,3.27,3.27,0,0,1-.53.17,2.63,2.63,0,0,1-.55.09.28.28,0,0,0-.24.33l3.44,13.84A.25.25,0,0,0,1386.25,531.93Z" transform="translate(38 -192)"/><path class="cls-3" d="M1384.11,504.46a.26.26,0,0,0-.25-.21h-7.59a.27.27,0,0,0-.25.33l.25,1a20.65,20.65,0,0,0,3.3,7.41c1.12,1.48,2.32,2.27,3.12,2.07s1.48-1.46,1.79-3.29A20.13,20.13,0,0,0,1384.11,504.46Z" transform="translate(38 -192)"/><path class="cls-3" d="M1520,683.48h-34.54a.26.26,0,0,0-.26.28,8.57,8.57,0,0,0,1.59,4.61,6.53,6.53,0,0,0,5.38,2.82h21.12a6.54,6.54,0,0,0,5.39-2.82,8.65,8.65,0,0,0,1.59-4.61A.28.28,0,0,0,1520,683.48Z" transform="translate(38 -192)"/><rect class="cls-3" x="1522.2" y="470.56" width="37.34" height="1.17" rx="0.27"/><rect class="cls-3" x="1520.85" y="484.74" width="39.82" height="5.47" rx="2.74"/><path class="cls-3" d="M1520.3,661.11c0-6.47-7.85-11.72-17.54-11.72s-17.54,5.25-17.54,11.72v0a.27.27,0,0,0,.27.26H1520a.26.26,0,0,0,.26-.26Zm-30-3.08-.43-.25a.56.56,0,0,1-.21-.78v0a.57.57,0,0,1,.78-.21l.44.25a.58.58,0,0,1,.21.78l0,0A.56.56,0,0,1,1490.31,658Zm6.19-3.41-.36.35a.57.57,0,0,1-.81,0l0,0a.58.58,0,0,1,0-.81l.36-.35a.58.58,0,0,1,.81,0l0,0A.58.58,0,0,1,1496.5,654.62Zm3.25,3.15-.11-.49a.57.57,0,0,1,.43-.68h0a.56.56,0,0,1,.68.43l.11.49a.57.57,0,0,1-.44.68h0A.57.57,0,0,1,1499.75,657.77Zm3-4.25-.43-.27a.57.57,0,0,1-.18-.79v0a.58.58,0,0,1,.79-.18l.42.27a.57.57,0,0,1,.19.78l0,0A.57.57,0,0,1,1502.78,653.52Zm4.19,3.84,0,0a.58.58,0,0,1,.07-.81l.39-.32a.57.57,0,0,1,.8.07l0,0a.57.57,0,0,1-.07.8l-.38.33A.58.58,0,0,1,1507,657.36Zm4.19-3-.27-.43a.57.57,0,0,1,.18-.79h0a.57.57,0,0,1,.79.18l.27.42a.57.57,0,0,1-.18.79h0A.58.58,0,0,1,1511.16,654.32Zm2.79,4.3-.47-.17a.57.57,0,0,1-.35-.73v0a.58.58,0,0,1,.73-.35l.47.17a.57.57,0,0,1,.35.73v0A.57.57,0,0,1,1514,658.62Z" transform="translate(38 -192)"/><rect class="cls-3" x="1523.23" y="479.78" width="35.07" height="3.74" rx="0.29"/><path class="cls-3" d="M1498.58,667.11l1.77-1.56a.28.28,0,0,0-.19-.5h-5.42a.29.29,0,0,0-.19.5l1.77,1.56A2.23,2.23,0,0,0,1498.58,667.11Z" transform="translate(38 -192)"/><path class="cls-3" d="M1519.85,667.1l1.7-1a.29.29,0,0,0,0-.47,2.65,2.65,0,0,0-1.63-.55h-4a.29.29,0,0,0-.19.5l1.77,1.56A2.24,2.24,0,0,0,1519.85,667.1Z" transform="translate(38 -192)"/><path class="cls-3" d="M1488,667.11l1.77-1.56a.28.28,0,0,0-.19-.5h-4a2.68,2.68,0,0,0-1.64.55.29.29,0,0,0,0,.47l1.7,1A2.22,2.22,0,0,0,1488,667.11Z" transform="translate(38 -192)"/><path class="cls-3" d="M1520.23,667.73a3,3,0,0,1-3.08,0l0,0-2.94-2.59a.32.32,0,0,0-.19-.07h-1.22a.29.29,0,0,0-.18.07l-2.95,2.59,0,0a3,3,0,0,1-3.08,0l0,0-2.94-2.59a.32.32,0,0,0-.19-.07h-1.22a.29.29,0,0,0-.18.07l-3,2.59,0,0a3,3,0,0,1-3.08,0l0,0-2.94-2.59a.32.32,0,0,0-.19-.07h-1.22a.29.29,0,0,0-.18.07l-2.95,2.59,0,0a3,3,0,0,1-3.08,0l-2.1-1.27a2.71,2.71,0,0,0-.34,1.33h0a2.73,2.73,0,0,0,2.74,2.73h34.35a2.73,2.73,0,0,0,2.73-2.73h0a2.74,2.74,0,0,0-.2-1,.29.29,0,0,0-.41-.14Z" transform="translate(38 -192)"/><path class="cls-3" d="M1509.2,667.11l1.77-1.56a.28.28,0,0,0-.19-.5h-5.42a.29.29,0,0,0-.19.5l1.77,1.56A2.23,2.23,0,0,0,1509.2,667.11Z" transform="translate(38 -192)"/><path class="cls-3" d="M203.29,584.74a24.14,24.14,0,0,0-8.69,2,.29.29,0,0,0-.17.35l4.5,16.76a.3.3,0,0,0,.36.22,14.53,14.53,0,0,1,8,0,.3.3,0,0,0,.36-.22l4.5-16.76a.29.29,0,0,0-.17-.35A24.13,24.13,0,0,0,203.29,584.74Z" transform="translate(38 -192)"/><path class="cls-3" d="M225.61,605.53a22.75,22.75,0,0,0-2.37-6,.3.3,0,0,0-.49-.05l-6.05,6.89a.3.3,0,0,0,0,.36c.41.65.89,1.37,1.47,2.17,1.77,2.57,4.26,3.89,6,3s2.27-3.52,1.43-6.43Z" transform="translate(38 -192)"/><path class="cls-3" d="M212.91,589.32,209.23,603a.3.3,0,0,0,.21.37,14.45,14.45,0,0,1,5.27,2.8.3.3,0,0,0,.42,0l8-9a.3.3,0,0,0,0-.37,21.13,21.13,0,0,0-9.79-7.64A.31.31,0,0,0,212.91,589.32Z" transform="translate(38 -192)"/><path class="cls-3" d="M181,605.53h0c-.84,2.91-.32,5.59,1.43,6.43s4.27-.45,6-3c.58-.8,1.06-1.52,1.47-2.17a.3.3,0,0,0,0-.36l-6.05-6.89a.3.3,0,0,0-.49.05A23.1,23.1,0,0,0,181,605.53Z" transform="translate(38 -192)"/><path class="cls-3" d="M183.48,597.12l8,9a.31.31,0,0,0,.43,0,14.29,14.29,0,0,1,5.27-2.8.3.3,0,0,0,.2-.37l-3.68-13.71a.31.31,0,0,0-.41-.21,21.13,21.13,0,0,0-9.79,7.64A.3.3,0,0,0,183.48,597.12Z" transform="translate(38 -192)"/><rect class="cls-3" x="1154.14" y="120.22" width="17.2" height="2.17" rx="1.09"/><path class="cls-3" d="M1124.51,295.46,1107.09,278a.33.33,0,0,1,.23-.56h34.84a.33.33,0,0,1,.23.56L1125,295.46A.32.32,0,0,1,1124.51,295.46Zm-13.92-16,13.92,13.92a.32.32,0,0,0,.46,0l13.92-13.92a.33.33,0,0,0-.23-.56h-27.84A.33.33,0,0,0,1110.59,279.49Z" transform="translate(38 -192)"/><path class="cls-3" d="M1124.51,296.67l-.29-.29a.33.33,0,0,0-.57.23V311a.33.33,0,0,0,.33.33h1.52a.33.33,0,0,0,.33-.33V296.61a.33.33,0,0,0-.56-.23l-.3.29A.32.32,0,0,1,1124.51,296.67Z" transform="translate(38 -192)"/><circle class="cls-3" cx="1177.34" cy="80.18" r="3.57"/><path class="cls-3" d="M1143.2,269.34l3.7-3.71a.32.32,0,0,0,0-.46l-.56-.56a.32.32,0,0,0-.46,0l-3.7,3.7a.33.33,0,0,0,0,.49,5.11,5.11,0,0,1,.52.52A.34.34,0,0,0,1143.2,269.34Z" transform="translate(38 -192)"/><path class="cls-3" d="M1135.48,275l-1,1.05a.33.33,0,0,0,.23.56h1.12a.32.32,0,0,0,.23-.09l.49-.49a.33.33,0,0,0,0-.49,4.26,4.26,0,0,1-.52-.52A.32.32,0,0,0,1135.48,275Z" transform="translate(38 -192)"/><path class="cls-3" d="M1133.37,283h-17.26a.33.33,0,0,0-.23.56l8.63,8.63a.32.32,0,0,0,.46,0l8.63-8.63A.33.33,0,0,0,1133.37,283Z" transform="translate(38 -192)"/><path class="cls-3" d="M1132,279.79h-1.12a.32.32,0,0,0-.23.09l-1.71,1.71a.33.33,0,0,0,.23.56h1.12a.37.37,0,0,0,.24-.1l1.7-1.7A.33.33,0,0,0,1132,279.79Z" transform="translate(38 -192)"/><path class="cls-3" d="M493.4,466.63a24,24,0,0,0-8.68,1.95.31.31,0,0,0-.18.36l4.51,16.76a.29.29,0,0,0,.36.21,14.49,14.49,0,0,1,8,0,.29.29,0,0,0,.36-.21l4.51-16.76a.31.31,0,0,0-.18-.36A24,24,0,0,0,493.4,466.63Z" transform="translate(38 -192)"/><path class="cls-3" d="M515.72,487.43a22.7,22.7,0,0,0-2.36-6,.3.3,0,0,0-.49,0l-6.06,6.89a.3.3,0,0,0,0,.36c.41.65.9,1.38,1.47,2.18,1.77,2.56,4.26,3.88,6,3s2.26-3.53,1.42-6.43Z" transform="translate(38 -192)"/><path class="cls-3" d="M503,471.21l-3.69,13.71a.3.3,0,0,0,.21.37,14.6,14.6,0,0,1,5.27,2.8.3.3,0,0,0,.43,0l8-9.05a.3.3,0,0,0,0-.36,21.11,21.11,0,0,0-9.8-7.64A.3.3,0,0,0,503,471.21Z" transform="translate(38 -192)"/><path class="cls-3" d="M471.08,487.43h0c-.84,2.9-.32,5.58,1.42,6.43s4.28-.46,6.05-3c.57-.8,1.06-1.53,1.47-2.18a.3.3,0,0,0,0-.36l-6.06-6.89a.3.3,0,0,0-.49,0A22.7,22.7,0,0,0,471.08,487.43Z" transform="translate(38 -192)"/><path class="cls-3" d="M473.6,479l7.95,9.05a.3.3,0,0,0,.43,0,14.6,14.6,0,0,1,5.27-2.8.3.3,0,0,0,.21-.37l-3.69-13.71a.3.3,0,0,0-.4-.2,21.11,21.11,0,0,0-9.8,7.64A.3.3,0,0,0,473.6,479Z" transform="translate(38 -192)"/><path class="cls-3" d="M1181.4,635.63a24,24,0,0,0-8.68,2,.31.31,0,0,0-.18.36l4.51,16.76a.29.29,0,0,0,.36.21,14.49,14.49,0,0,1,8,0,.29.29,0,0,0,.36-.21l4.51-16.76a.31.31,0,0,0-.18-.36A24,24,0,0,0,1181.4,635.63Z" transform="translate(38 -192)"/><path class="cls-3" d="M1203.72,656.43a22.7,22.7,0,0,0-2.36-6,.3.3,0,0,0-.49-.05l-6.06,6.89a.3.3,0,0,0,0,.36c.41.65.9,1.38,1.47,2.18,1.77,2.56,4.26,3.88,6,3s2.26-3.53,1.42-6.43Z" transform="translate(38 -192)"/><path class="cls-3" d="M1191,640.21l-3.69,13.71a.3.3,0,0,0,.21.37,14.6,14.6,0,0,1,5.27,2.8.3.3,0,0,0,.43,0l8-9a.3.3,0,0,0,0-.36,21.11,21.11,0,0,0-9.8-7.64A.3.3,0,0,0,1191,640.21Z" transform="translate(38 -192)"/><path class="cls-3" d="M1159.08,656.43h0c-.84,2.9-.32,5.58,1.42,6.43s4.28-.46,6-3c.57-.8,1.06-1.53,1.47-2.18a.3.3,0,0,0,0-.36l-6.06-6.89a.3.3,0,0,0-.49.05A22.7,22.7,0,0,0,1159.08,656.43Z" transform="translate(38 -192)"/><path class="cls-3" d="M1161.6,648l8,9a.3.3,0,0,0,.43,0,14.6,14.6,0,0,1,5.27-2.8.3.3,0,0,0,.21-.37l-3.69-13.71a.3.3,0,0,0-.4-.2,21.11,21.11,0,0,0-9.8,7.64A.3.3,0,0,0,1161.6,648Z" transform="translate(38 -192)"/><rect class="cls-3" x="927.68" y="508.06" width="17.2" height="2.17" rx="1.09"/><path class="cls-3" d="M898.05,683.29l-17.42-17.41a.33.33,0,0,1,.24-.56H915.7a.33.33,0,0,1,.23.56l-17.41,17.41A.33.33,0,0,1,898.05,683.29Zm-13.92-16,13.92,13.91a.33.33,0,0,0,.47,0l13.91-13.91a.33.33,0,0,0-.23-.56H884.37A.33.33,0,0,0,884.13,667.33Z" transform="translate(38 -192)"/><path class="cls-3" d="M898.05,684.51l-.29-.3a.33.33,0,0,0-.56.24v14.42a.32.32,0,0,0,.32.33H899a.33.33,0,0,0,.33-.33V684.45a.33.33,0,0,0-.56-.24l-.29.3A.35.35,0,0,1,898.05,684.51Z" transform="translate(38 -192)"/><circle class="cls-3" cx="950.88" cy="468.01" r="3.57"/><path class="cls-3" d="M916.74,657.17l3.71-3.7a.35.35,0,0,0,0-.47l-.56-.55a.33.33,0,0,0-.47,0l-3.7,3.7a.32.32,0,0,0,0,.48,5.11,5.11,0,0,1,.52.52A.32.32,0,0,0,916.74,657.17Z" transform="translate(38 -192)"/><path class="cls-3" d="M909,662.85l-1,1a.33.33,0,0,0,.23.56h1.12a.29.29,0,0,0,.23-.1l.49-.49a.32.32,0,0,0,0-.48,6.38,6.38,0,0,1-.52-.52A.32.32,0,0,0,909,662.85Z" transform="translate(38 -192)"/><path class="cls-3" d="M906.91,670.84H889.65a.33.33,0,0,0-.23.56l8.63,8.63a.33.33,0,0,0,.47,0l8.62-8.63A.33.33,0,0,0,906.91,670.84Z" transform="translate(38 -192)"/><path class="cls-3" d="M905.5,667.62h-1.12a.33.33,0,0,0-.23.1l-1.71,1.7a.34.34,0,0,0,.24.57h1.11a.35.35,0,0,0,.24-.1l1.7-1.71A.33.33,0,0,0,905.5,667.62Z" transform="translate(38 -192)"/><rect class="cls-3" x="1618.18" y="322.66" width="17.2" height="2.17" rx="1.09"/><path class="cls-3" d="M1588.55,497.89l-17.42-17.41a.33.33,0,0,1,.24-.56h34.83a.33.33,0,0,1,.23.56L1589,497.89A.33.33,0,0,1,1588.55,497.89Zm-13.92-16,13.92,13.91a.33.33,0,0,0,.47,0l13.91-13.91a.33.33,0,0,0-.23-.56h-27.83A.33.33,0,0,0,1574.63,481.93Z" transform="translate(38 -192)"/><path class="cls-3" d="M1588.55,499.11l-.29-.3a.33.33,0,0,0-.56.24v14.42a.32.32,0,0,0,.32.33h1.52a.33.33,0,0,0,.33-.33V499.05a.33.33,0,0,0-.56-.24l-.29.3A.35.35,0,0,1,1588.55,499.11Z" transform="translate(38 -192)"/><circle class="cls-3" cx="1641.38" cy="282.61" r="3.57"/><path class="cls-3" d="M1607.24,471.77l3.71-3.7a.35.35,0,0,0,0-.47l-.56-.55a.33.33,0,0,0-.47,0l-3.7,3.7a.32.32,0,0,0,0,.48,5.11,5.11,0,0,1,.52.52A.32.32,0,0,0,1607.24,471.77Z" transform="translate(38 -192)"/><path class="cls-3" d="M1599.52,477.45l-1,1.05a.33.33,0,0,0,.23.56h1.12a.29.29,0,0,0,.23-.1l.49-.49a.32.32,0,0,0,0-.48,6.38,6.38,0,0,1-.52-.52A.32.32,0,0,0,1599.52,477.45Z" transform="translate(38 -192)"/><path class="cls-3" d="M1597.41,485.44h-17.26a.33.33,0,0,0-.23.56l8.63,8.63a.33.33,0,0,0,.47,0l8.62-8.63A.33.33,0,0,0,1597.41,485.44Z" transform="translate(38 -192)"/><path class="cls-3" d="M1596,482.22h-1.12a.33.33,0,0,0-.23.1l-1.71,1.7a.34.34,0,0,0,.24.57h1.11a.35.35,0,0,0,.24-.1l1.7-1.71A.33.33,0,0,0,1596,482.22Z" transform="translate(38 -192)"/></g></g></svg>