<svg xmlns="http://www.w3.org/2000/svg" width="103.533" height="86.556" viewBox="0 0 103.533 86.556">
  <g id="Internet_140_" transform="translate(0 0)">
    <path id="XMLID_3435_" d="M495.058,258.63h-86.5a8.544,8.544,0,0,0-8.515,8.515v56.725a8.544,8.544,0,0,0,8.515,8.515h86.5a8.544,8.544,0,0,0,8.515-8.515V267.145A8.544,8.544,0,0,0,495.058,258.63Zm-35.807,65.24H444.362v-3.358h14.889Zm37.209-7.087H407.1V267.145H496.46Z" transform="translate(-400.04 -258.63)" fill="#f64747"/>
    <path id="XMLID_3444_" d="M443.741,287.51H427.186l-3.835,5.1H409.97v1.693a3.627,3.627,0,0,0,3.835,3.385h43.317a3.645,3.645,0,0,0,3.835-3.385v-1.693H447.575Z" transform="translate(-383.71 -211.136)" fill="#f64747"/>
    <path id="XMLID_3445_" d="M428.446,293.514a2.618,2.618,0,0,0,3.676,0l.767-.767,2.01-2.01,17.851-17.851a2.618,2.618,0,0,0,0-3.676l-2.592-2.592a2.618,2.618,0,0,0-3.676,0l-16.026,16.026L419.481,271.67a2.618,2.618,0,0,0-3.676,0l-2.777,2.777a2.618,2.618,0,0,0,0,3.676Z" transform="translate(-379.919 -246.732)" fill="#f64747"/>
  </g>
</svg>
