<svg xmlns="http://www.w3.org/2000/svg" width="96.661" height="93.231" viewBox="0 0 96.661 93.231">
  <g id="logo6-Bueno" transform="translate(1.903 3.174)">
    <circle id="Elipse_4" data-name="Elipse 4" cx="43.746" cy="43.746" r="43.746" transform="translate(2.026 0)" fill="#f64747" stroke="#f64747" stroke-miterlimit="10" stroke-width="2"/>
    <path id="Trazado_7" data-name="Trazado 7" d="M.3,63.279l42.365,29.1L92.4,3.6,35.757,66.963Z" transform="translate(-0.3 -3.047)" fill="#fff" stroke="#f64747" stroke-miterlimit="10" stroke-width="1"/>
    <path id="Trazado_8" data-name="Trazado 8" d="M34.107,24.4c-10.96,0-12.525,10.775-11.144,15.012,1.381,4.144,10.96,19.617,10.96,19.617s10.131-16.3,11.144-19.709C46.633,33.978,43.87,24.492,34.107,24.4Zm-.184,17.683a6.263,6.263,0,1,1,6.263-6.263A6.269,6.269,0,0,1,33.923,42.083Z" transform="translate(-2.058 -4.691)" fill="#fff" stroke="#f64747" stroke-miterlimit="10" stroke-width="2"/>
  </g>
</svg>
