<svg id="Layer_2" data-name="Layer 2" xmlns="http://www.w3.org/2000/svg" viewBox="0 0 500.4 507.69"><defs><style>.cls-1{fill:#706f6f;}</style></defs><title>calendar</title><g id="Multimedia"><path class="cls-1" d="M411.9,109.47c15.52,0,28.07-15.66,28.07-35.14V37.52C440,18,427.42,2.31,411.9,2.31S383.84,18,383.84,37.52V74.33C383.84,93.81,396.37,109.47,411.9,109.47Z" transform="translate(-37.1 -2.31)"/><path class="cls-1" d="M161.52,109.47c16.23,0,29.38-15.66,29.38-35.14V37.52c0-19.51-13.15-35.21-29.38-35.21S132.17,18,132.17,37.52V74.33C132.17,93.81,145.28,109.47,161.52,109.47Z" transform="translate(-37.1 -2.31)"/><path class="cls-1" d="M537,63.23H466.1V81.14a53.61,53.61,0,1,1-107.21,0V63.23h-143V81.14a53.61,53.61,0,1,1-107.22,0V63.23L37.1,62.35V510H501.78l35.72-.11ZM501.78,474.36H72.85v-286H501.78Z" transform="translate(-37.1 -2.31)"/><rect class="cls-1" x="177.06" y="224.43" width="56.34" height="49.71"/><rect class="cls-1" x="268.13" y="224.43" width="56.39" height="49.71"/><rect class="cls-1" x="357.54" y="224.43" width="56.34" height="49.71"/><rect class="cls-1" x="177.06" y="307" width="56.34" height="49.68"/><rect class="cls-1" x="268.13" y="307" width="56.39" height="49.68"/><rect class="cls-1" x="357.54" y="307" width="56.34" height="49.68"/><rect class="cls-1" x="177.06" y="391.21" width="56.34" height="49.68"/><rect class="cls-1" x="86.55" y="307" width="56.29" height="49.68"/><rect class="cls-1" x="86.55" y="391.21" width="56.29" height="49.68"/><rect class="cls-1" x="268.13" y="391.21" width="56.39" height="49.68"/><rect class="cls-1" x="86.53" y="224.44" width="56.34" height="49.68"/></g></svg>