<svg id="Layer_2" data-name="Layer 2" xmlns="http://www.w3.org/2000/svg" viewBox="0 0 491.7 510.24"><defs><style>.cls-1{fill:#706f6f;}</style></defs><title>editar</title><g id="Business"><path class="cls-1" d="M391.83,116.61v36.07a140.92,140.92,0,0,1,53.25,1.7v-50.9a44.94,44.94,0,0,0-44.8-44.81h-58.6v50.47h42.69A7.49,7.49,0,0,1,391.83,116.61Z" transform="translate(-41.87)"/><path class="cls-1" d="M391.83,422.74V452.3a7.49,7.49,0,0,1-7.46,7.47H102.58a7.49,7.49,0,0,1-7.47-7.47V116.61a7.49,7.49,0,0,1,7.47-7.47h42.58V58.67H86.67a44.94,44.94,0,0,0-44.8,44.81v362a44.93,44.93,0,0,0,44.8,44.81H400.28a44.93,44.93,0,0,0,44.8-44.81V421a140.92,140.92,0,0,1-53.25,1.7Z" transform="translate(-41.87)"/><path class="cls-1" d="M320.14,44.8h-44.8V7.47A7.49,7.49,0,0,0,267.87,0H218.09a7.49,7.49,0,0,0-7.46,7.47V44.8h-44.8v97.51H320.14Z" transform="translate(-41.87)"/><path class="cls-1" d="M126,192.89a26.14,26.14,0,1,0,26.14-26.13A26.14,26.14,0,0,0,126,192.89Z" transform="translate(-41.87)"/><path class="cls-1" d="M152.14,258.32a26.14,26.14,0,1,0,26.13,26.14A26.14,26.14,0,0,0,152.14,258.32Z" transform="translate(-41.87)"/><circle class="cls-1" cx="110.27" cy="374.59" r="26.13"/><path class="cls-1" d="M414,168.12A119.55,119.55,0,1,0,533.57,287.66,119.54,119.54,0,0,0,414,168.12ZM365.11,359.21c-5.24,1.7-4.34-2.12-4.12-5.13s3.17-43.88,3.17-43.88L408.09,343S371.45,356.91,365.11,359.21ZM414,334.91l-43.93-32.75,42.05-56.32,44.66,31.77Zm61-81.74-12.82,17.19-43.94-32.75,12.82-17.19a9.56,9.56,0,0,1,13.34-1.95l28.65,21.36A9.57,9.57,0,0,1,475,253.17Z" transform="translate(-41.87)"/></g></svg>