<svg id="Layer_2" data-name="Layer 2" xmlns="http://www.w3.org/2000/svg" viewBox="0 0 575.43 337.22"><defs><style>.cls-1{fill:#706f6f;}</style></defs><title>eye</title><g id="Nature"><path class="cls-1" d="M287.72,85.87C128.81,85.87,0,254.49,0,254.49S128.81,423.1,287.72,423.1,575.43,254.49,575.43,254.49,446.62,85.87,287.72,85.87Zm0,276.2A111.46,111.46,0,1,1,399.17,250.61,111.46,111.46,0,0,1,287.72,362.07Z" transform="translate(0 -85.87)"/><path class="cls-1" d="M362.79,249a74.11,74.11,0,0,0-4.45-25.15,36.21,36.21,0,1,1-36-39,35.15,35.15,0,0,1,4.51.46,74.41,74.41,0,1,0,36,63.65Z" transform="translate(0 -85.87)"/></g></svg>