<svg id="Layer_2" data-name="Layer 2" xmlns="http://www.w3.org/2000/svg" viewBox="0 0 481.05 510.24"><defs><style>.cls-1{fill:#706f6f;}</style></defs><title>search</title><g id="Edit"><path class="cls-1" d="M246.16,403.37a200.19,200.19,0,0,0,105.37-30.18c.36.45.62.94,1,1.37L465.19,499A34.1,34.1,0,0,0,478,507.75l1.28,1.53.82-.8a34.53,34.53,0,0,0,36.48-56L403.94,328c-.16-.17-.36-.29-.52-.46a200.47,200.47,0,0,0,44.46-125.91C447.88,90.3,357.57,0,246.15,0S44.46,90.31,44.47,201.67,134.78,403.38,246.16,403.37ZM105.05,201.67A141.12,141.12,0,1,1,246.16,342.79,141.11,141.11,0,0,1,105.05,201.67Z" transform="translate(-44.47 0)"/></g></svg>