<svg id="Layer_2" data-name="Layer 2" xmlns="http://www.w3.org/2000/svg" viewBox="0 0 564.29 495.71"><defs><style>.cls-1{fill:#706f6f;}</style></defs><title>tags</title><g id="Edit"><path class="cls-1" d="M285.6,72.1l-260.08,2a23.27,23.27,0,0,0-23.08,23L3,301.22,250.07,501.74a14.64,14.64,0,0,0,18.4.05L530.6,291.51a14.66,14.66,0,0,0,0-22.86ZM151.93,242.4c-35.44,0-64.17-23.05-64.17-51.49s28.73-51.48,64.17-51.48,64.18,23,64.18,51.48S187.38,242.4,151.93,242.4Z" transform="translate(-2.44 -9.3)"/><path class="cls-1" d="M303.72,35.89,545.71,230a7.85,7.85,0,0,0,9.84,0l8.24-6.61a7.87,7.87,0,0,0,0-12.27L312.18,9.3,37,11.42a7.86,7.86,0,0,0-7.8,7.77L29.07,30A7.87,7.87,0,0,0,37,38Z" transform="translate(-2.44 -9.3)"/></g></svg>