<svg id="Layer_2" data-name="Layer 2" xmlns="http://www.w3.org/2000/svg" viewBox="0 0 575.43 337.22"><defs><style>.cls-1{fill:#706f6f;}</style></defs><title>vista</title><g id="Business"><path class="cls-1" d="M287.72,80.76C128.81,80.76,0,249.37,0,249.37S128.81,418,287.72,418,575.43,249.37,575.43,249.37,446.62,80.76,287.72,80.76Zm0,276.19A111.46,111.46,0,1,1,399.17,245.49,111.46,111.46,0,0,1,287.72,357Z" transform="translate(0 -80.76)"/><path class="cls-1" d="M288.32,169.42a74.35,74.35,0,0,0-25.15,4.44,36.21,36.21,0,1,1-39,36,35.52,35.52,0,0,1,.46-4.51,74.42,74.42,0,1,0,63.65-36Z" transform="translate(0 -80.76)"/></g></svg>