<svg id="Layer_2" data-name="Layer 2" xmlns="http://www.w3.org/2000/svg" viewBox="0 0 510.24 510.24"><defs><style>.cls-1{fill:#706f6f;}</style></defs><title>anunciolink</title><path id="Arrow" class="cls-1" d="M467.64,435.51c99.63-99.62,99.63-261.16,0-360.79s-261.16-99.63-360.79,0-99.63,261.17,0,360.79S368,535.14,467.64,435.51ZM278.07,413l-43.83-43.83a6.52,6.52,0,0,1,0-9.2l66.39-66.39H138.53a6.53,6.53,0,0,1-6.5-6.5v-64a6.52,6.52,0,0,1,6.5-6.5h162.1l-66.39-66.4a6.51,6.51,0,0,1,0-9.19l43.83-43.84a6.54,6.54,0,0,1,9.2,0l153.29,153.3a6.53,6.53,0,0,1,0,9.21L287.27,413A6.52,6.52,0,0,1,278.07,413Z" transform="translate(-32.12 0)"/></svg>