<svg id="Layer_2" data-name="Layer 2" xmlns="http://www.w3.org/2000/svg" viewBox="0 0 522.33 510.24"><defs><style>.cls-1{fill:#a157e3;}</style></defs><title>cart-sold</title><g id="Ecommerce"><path class="cls-1" d="M231.79,415.29a47.48,47.48,0,1,0,47.45,47.47A47.47,47.47,0,0,0,231.79,415.29Z" transform="translate(-26.55)"/><path class="cls-1" d="M439,415.29a47.48,47.48,0,1,0,47.47,47.47A47.46,47.46,0,0,0,439,415.29Z" transform="translate(-26.55)"/><path class="cls-1" d="M519.24,185.58h-362s-5.15-43.92-8.06-62,.28-.43-97.63-46.58c-23-9.65-42.28,32.46,0,54.51l48,19.88,57.24,213.82s6.93,32.33,30.63,32.33H482c24.66,0,29.45-25.76,29.45-25.76l34-140.91S562.8,185.58,519.24,185.58Z" transform="translate(-26.55)"/><path class="cls-1" d="M324.56,142.31a13.41,13.41,0,0,0,18.89,0l3.93-3.94,10.31-10.3L449.6,36.16a13.41,13.41,0,0,0,0-18.89L436.22,3.89a13.39,13.39,0,0,0-18.88,0L334.87,86.37,278.41,29.91a13.39,13.39,0,0,0-18.88,0L245.29,44.15a13.39,13.39,0,0,0,0,18.88Z" transform="translate(-26.55)"/></g></svg>