<svg id="Layer_2" data-name="Layer 2" xmlns="http://www.w3.org/2000/svg" viewBox="0 0 575.43 510.24"><defs><style>.cls-1{fill:#A157E3;}</style></defs><title>comentario</title><path id="Multimedia" class="cls-1" d="M517.24,0h-459C26.18,0,0,25.8,0,57.32V356.68C0,388.21,26.18,414,58.19,414h72.08v96.24L235.48,414H517.24c32,0,58.19-25.79,58.19-57.32V57.32C575.43,25.8,549.25,0,517.24,0Zm-66.4,289.65c0,1.21-3.36,2.21-7.44,2.21H132c-4.08,0-7.41-1-7.41-2.21V267.46c0-1.23,3.33-2.23,7.41-2.23H443.4c4.08,0,7.44,1,7.44,2.23Zm0-73.61c0,1.22-3.36,2.22-7.44,2.22H132c-4.08,0-7.41-1-7.41-2.22V193.85c0-1.22,3.33-2.22,7.41-2.22H443.4c4.08,0,7.44,1,7.44,2.22Zm0-75.39c0,1.21-3.36,2.21-7.44,2.21H132c-4.08,0-7.41-1-7.41-2.21V118.46c0-1.23,3.33-2.23,7.41-2.23H443.4c4.08,0,7.44,1,7.44,2.23Z"/></svg>