<svg xmlns="http://www.w3.org/2000/svg" viewBox="0 0 88 88"><defs><style>.cls-1{fill:none;stroke:#1d1d1b;stroke-miterlimit:10;}</style></defs><title>Asset 9</title><g id="Layer_2" data-name="Layer 2"><g id="Layer_2-2" data-name="Layer 2"><path class="cls-1" d="M10,38.2a34.23,34.23,0,0,1,5.85-14.12"/><path class="cls-1" d="M15.89,63.92A34.18,34.18,0,0,1,10,49.8"/><path class="cls-1" d="M38.2,78a34.14,34.14,0,0,1-14.11-5.85"/><path class="cls-1" d="M63.92,72.11A34.18,34.18,0,0,1,49.8,78"/><path class="cls-1" d="M78,49.8a34.14,34.14,0,0,1-5.85,14.11"/><path class="cls-1" d="M72.11,24.08A34.18,34.18,0,0,1,78,38.2"/><path class="cls-1" d="M49.8,10a34.14,34.14,0,0,1,14.11,5.85"/><path class="cls-1" d="M24.08,15.89A34.23,34.23,0,0,1,38.2,10"/><path class="cls-1" d="M38.2,10V2.65A2.15,2.15,0,0,1,40.35.5h7.3A2.14,2.14,0,0,1,49.8,2.64V10"/><path class="cls-1" d="M63.91,15.89l.07-.06,5.16-5.18a2.15,2.15,0,0,1,3,0l5.18,5.18a2.15,2.15,0,0,1,0,3L72.17,24a.34.34,0,0,1-.06.06"/><path class="cls-1" d="M78,38.2h7.39a2.14,2.14,0,0,1,2.15,2.14v7.31a2.14,2.14,0,0,1-2.14,2.15H78"/><path class="cls-1" d="M72.11,63.91h0l.06.06,5.18,5.16a2.15,2.15,0,0,1,0,3l-5.18,5.18a2.15,2.15,0,0,1-3,0L64,72.17a.34.34,0,0,1-.06-.06"/><path class="cls-1" d="M49.8,78v7.39a2.14,2.14,0,0,1-2.14,2.15H40.35a2.14,2.14,0,0,1-2.15-2.14V78"/><path class="cls-1" d="M24.09,72.11l-.07.06-5.16,5.18a2.15,2.15,0,0,1-3,0l-5.18-5.18a2.15,2.15,0,0,1,0-3L15.83,64l.06-.06"/><path class="cls-1" d="M10,49.8H2.65A2.14,2.14,0,0,1,.5,47.66V40.35A2.14,2.14,0,0,1,2.64,38.2H10"/><path class="cls-1" d="M15.89,24.08a.34.34,0,0,1-.06-.06l-5.18-5.16a2.15,2.15,0,0,1,0-3l5.18-5.18a2.15,2.15,0,0,1,3,0L24,15.83a.34.34,0,0,1,.06.06"/><circle class="cls-1" cx="43.61" cy="43.61" r="19.06"/></g></g></svg>