<svg id="Layer_2" data-name="Layer 2" xmlns="http://www.w3.org/2000/svg" viewBox="0 0 504.36 504.49"><defs><style>.cls-1{fill:#fff;}</style></defs><title>configuración</title><path class="cls-1" d="M486.94,229.71l52.58-36.61-16-46.06-64.08,3.79A201.44,201.44,0,0,0,410.8,96l11.33-63.24L378.26,11.49,335.54,59.6a200.33,200.33,0,0,0-73.1-4.35L225.67,2.44l-46.07,16,3.81,64.33a201.42,201.42,0,0,0-54.67,48.5L65.37,119.88,44.09,163.74l48.14,42.75a200.33,200.33,0,0,0-4.38,73.34L35.16,316.52l16,46.06,64.18-3.8a201.34,201.34,0,0,0,48.74,54.86l-11.3,63L196.61,498,239.2,450a200.23,200.23,0,0,0,73,4.37l36.57,52.54,46.07-16L391,427.11a201,201,0,0,0,55.11-48.81l63,11.29,21.28-43.87-47.86-42.5A200.17,200.17,0,0,0,486.94,229.71ZM287.34,357.06A102.38,102.38,0,1,1,389.72,254.68,102.38,102.38,0,0,1,287.34,357.06Z" transform="translate(-35.16 -2.44)"/></svg>