<svg id="Layer_1" data-name="Layer 1" xmlns="http://www.w3.org/2000/svg" viewBox="0 0 575.86 493.66"><defs><style>.cls-1{fill:#7ebc5d;}</style></defs><title>dashboard</title><path class="cls-1" d="M572.48,235.44,295.3,10.46a13.23,13.23,0,0,0-14.4,0L3.72,235.44c-4.93,4-4.7,12.17.51,18.25L27,280.22C32.16,286.3,40.37,288,45.3,284L288.1,86.91,530.9,284c4.92,4,13.14,2.31,18.35-3.77L572,253.69C577.18,247.61,577.41,239.43,572.48,235.44Z" transform="translate(-0.17 -8.3)"/><path class="cls-1" d="M295.47,145.72a10.13,10.13,0,0,0-13.88,0L96,295.88V502h146.3V352.64h91.22V502H479.07V295.88Z" transform="translate(-0.17 -8.3)"/><rect class="cls-1" x="435.69" y="51.75" width="43.21" height="107.41" rx="11.63"/></svg>