<svg id="Layer_2" data-name="Layer 2" xmlns="http://www.w3.org/2000/svg" viewBox="0 0 554.51 480.37"><defs><style>.cls-1{fill:#71706f;}</style></defs><title>dashboard-a</title><path id="Transport" class="cls-1" d="M462,186.5V53.63A9.61,9.61,0,0,0,452.35,44l-60.7,0A9.62,9.62,0,0,0,382,53.67v53l-89.6-86.11a11.52,11.52,0,0,0-16.34.37L13,298a8.21,8.21,0,0,0,5.95,13.86h66.3v185.5l400,.36,3.29-184.31,68.46,0a8.21,8.21,0,0,0,6.12-13.68ZM265.88,375.19H202.16a6.83,6.83,0,0,1-6.83-6.83V324a6.83,6.83,0,0,1,6.83-6.83h63.72a6.83,6.83,0,0,1,6.83,6.83v44.41A6.83,6.83,0,0,1,265.88,375.19Zm0-79.68H202.16a6.83,6.83,0,0,1-6.83-6.83V244.26a6.83,6.83,0,0,1,6.83-6.83h63.72a6.83,6.83,0,0,1,6.83,6.83v44.42A6.83,6.83,0,0,1,265.88,295.51Zm102.73,79.68H304.89a6.83,6.83,0,0,1-6.83-6.83V324a6.83,6.83,0,0,1,6.83-6.83h63.72a6.83,6.83,0,0,1,6.83,6.83v44.41A6.83,6.83,0,0,1,368.61,375.19Zm0-79.68H304.89a6.83,6.83,0,0,1-6.83-6.83V244.26a6.83,6.83,0,0,1,6.83-6.83h63.72a6.83,6.83,0,0,1,6.83,6.83v44.42A6.83,6.83,0,0,1,368.61,295.51Z" transform="translate(-10.7 -17.34)"/></svg>