<svg xmlns="http://www.w3.org/2000/svg" viewBox="0 0 82.77 107.39"><defs><style>.cls-1{fill:none;stroke:#1d1d1b;stroke-miterlimit:10;}</style></defs><title>Asset 15</title><g id="Layer_2" data-name="Layer 2"><g id="Layer_2-2" data-name="Layer 2"><path class="cls-1" d="M76.54,20.54a5.09,5.09,0,0,1,4,4.79v76.58a5.24,5.24,0,0,1-5.47,5H6a5.24,5.24,0,0,1-5.47-5V25.33a5.24,5.24,0,0,1,5.47-5H60.4"/><path class="cls-1" d="M76.54,20.54,60.22,60.61l-11,7.27-1.2-4.42L46,55.79,60.4,20.35,67.84,2.07A2.74,2.74,0,0,1,71.24.65l9.3,3.14a2.34,2.34,0,0,1,1.56,3.1Z"/><line class="cls-1" x1="16.91" y1="46.19" x2="49.74" y2="46.19"/><polyline class="cls-1" points="16.91 63.46 48.06 63.46 48.2 63.46"/><line class="cls-1" x1="16.91" y1="81.21" x2="63.59" y2="80.74"/></g></g></svg>