<svg xmlns="http://www.w3.org/2000/svg" viewBox="0 0 88.26 88"><defs><style>.cls-1{fill:none;stroke:#1d1d1b;stroke-miterlimit:10;}</style></defs><title>Asset 7</title><g id="Layer_2" data-name="Layer 2"><g id="Layer_2-2" data-name="Layer 2"><polyline class="cls-1" points="48.61 35.99 48.61 87.5 42.01 87.5 42.01 35.99"/><polyline class="cls-1" points="46.8 17.41 48.61 17.41 48.61 24.17"/><line class="cls-1" x1="43.82" y1="17.41" x2="46.8" y2="17.41"/><polyline class="cls-1" points="48.61 24.17 48.61 35.99 42.01 35.99 42.01 24.17"/><polyline class="cls-1" points="42.01 24.17 42.01 17.41 43.82 17.41"/><path class="cls-1" d="M48.61,17.41H81.46a6.3,6.3,0,0,1,6.3,6.31V81.19a6.3,6.3,0,0,1-6.3,6.31H48.61"/><path class="cls-1" d="M42,87.5H6.81A6.31,6.31,0,0,1,.5,81.19V23.72a6.31,6.31,0,0,1,6.31-6.31H42"/><line class="cls-1" x1="48.61" y1="35.99" x2="87.76" y2="35.99"/><line class="cls-1" x1="0.5" y1="35.99" x2="42.01" y2="35.99"/><path class="cls-1" d="M65,17.41a40.9,40.9,0,0,0,3.54-2.49c5.86-4.71,8-10.62,4.77-13.21S62.71.83,56.84,5.54a45,45,0,0,0-10,11.87"/><path class="cls-1" d="M25.64,17.41a42.23,42.23,0,0,1-3.53-2.49c-5.87-4.71-8-10.62-4.78-13.21S27.91.83,33.78,5.54a45,45,0,0,1,10,11.87"/></g></g></svg>