<svg id="Layer_2" data-name="Layer 2" xmlns="http://www.w3.org/2000/svg" viewBox="0 0 575.43 486.5"><defs><style>.cls-1{fill:#706f6f;fill-rule:evenodd;}</style></defs><title>mensaje</title><path id="Multimedia" class="cls-1" d="M575.43,230.12c0-86.65-66-161.54-161.88-197.1-38-14.1-80.71-22-125.83-22s-87.83,7.92-125.85,22C66,68.58,0,143.47,0,230.12S66,391.66,161.87,427.21c38,14.1,80.71,22,125.85,22a365.87,365.87,0,0,0,111-16.91l14.84,9.75L498,497.5,457.48,407C529,367.16,575.43,302.78,575.43,230.12ZM161.87,268.84c-21.53,0-39-15.41-39-34.42s17.46-34.41,39-34.41,39,15.4,39,34.41S183.42,268.84,161.87,268.84Zm125.85,0c-21.55,0-39-15.41-39-34.42s17.46-34.41,39-34.41,39,15.4,39,34.41S309.26,268.84,287.72,268.84Zm125.84,0h0c-21.53,0-39-15.41-39-34.42S392,200,413.55,200h0c21.53,0,39,15.4,39,34.41S435.09,268.84,413.56,268.84Z" transform="translate(0 -11)"/></svg>