<svg xmlns="http://www.w3.org/2000/svg" viewBox="0 0 88 87.3"><defs><style>.cls-1{fill:none;stroke:#1d1d1b;stroke-miterlimit:10;}</style></defs><title>Asset 8</title><g id="Layer_2" data-name="Layer 2"><g id="Layer_2-2" data-name="Layer 2"><ellipse class="cls-1" cx="24.56" cy="37.62" rx="5.76" ry="7.17"/><ellipse class="cls-1" cx="44.19" cy="37.62" rx="5.76" ry="7.17"/><ellipse class="cls-1" cx="63.8" cy="37.62" rx="5.76" ry="7.17"/><path class="cls-1" d="M57.05,73.06a50.62,50.62,0,0,1-13,1.69C20,74.75.5,58.13.5,37.62S20,.5,44,.5,87.5,17.12,87.5,37.62c0,14.37-9.57,26.83-23.57,33"/><path class="cls-1" d="M57.05,73.06c1.29,4.85,4,11.55,9.62,13.69.89.34,1.55-1.06.85-1.84-2.34-2.58-5-7.23-3.59-14.29"/></g></g></svg>