<svg id="Layer_2" data-name="Layer 2" xmlns="http://www.w3.org/2000/svg" viewBox="0 0 564.12 495.87"><defs><style>.cls-1{fill:#010101;}</style></defs><title>negocio</title><path class="cls-1" d="M467.11,119" transform="translate(-1.47 -3.95)"/><rect class="cls-1" x="472.05" y="109.9" width="92.56" height="41.36" rx="11.71" transform="translate(-14.88 181.21) rotate(-20)"/><rect class="cls-1" x="472.05" y="326.98" width="92.56" height="41.36" rx="11.71" transform="translate(148.69 -160.26) rotate(20)"/><rect class="cls-1" x="470.58" y="210.89" width="92.56" height="41.36" rx="11.71"/><path class="cls-1" d="M454.7,29s-14.23-46-63.87-13.22c0,0-91.57,101-224,111.37l-112,.62S11.15,134,1.48,176.16V299.23s-1.72,40,55.1,51.49l40.84.4H98v137a11.71,11.71,0,0,0,11.71,11.71h61.76a11.71,11.71,0,0,0,11.71-11.71V352.88c123.57,16.85,207.67,109.6,207.67,109.6,49.64,32.83,63.87-13.21,63.87-13.21l-1.17-210.15ZM99.21,191.79l67.62-.67s6,.14,16.33-.57v97.14c-10.34-.72-16.33-.57-16.33-.57l-67.62-2.74Zm291.62,186c-43.25-42.52-93.3-65.12-135.11-77.13V177.57c41.81-12,91.86-34.61,135.11-77.14V377.8Z" transform="translate(-1.47 -3.95)"/></svg>