<svg xmlns="http://www.w3.org/2000/svg" viewBox="0 0 88 86.95"><defs><style>.cls-1,.cls-2{fill:none;stroke:#1d1d1b;stroke-miterlimit:10;}.cls-2{stroke-width:2px;}</style></defs><title>Asset 5</title><g id="Layer_2" data-name="Layer 2"><g id="Layer_2-2" data-name="Layer 2"><path class="cls-1" d="M38.92,61.9V81.71a4.66,4.66,0,0,1-4.58,4.74,4.51,4.51,0,0,1-3.23-1.39,4.82,4.82,0,0,1-1.33-3.35V59.41"/><path class="cls-1" d="M34.75,51.49l-.41,0"/><path class="cls-1" d="M15.67,45a7.27,7.27,0,0,1-2.52.46H7.93A7.58,7.58,0,0,1,.5,37.73a7.82,7.82,0,0,1,2.18-5.45A7.24,7.24,0,0,1,7.93,30h5.22a7.27,7.27,0,0,1,2.52.46"/><path class="cls-1" d="M34.75,14.38,81.94.62c2.9-.85,5.56,3,5.56,8V65.57c0,5-2.62,8.83-5.5,8.05L38.92,61.9l-4.17-1.14-5-1.35L19.69,56.66c-2.31-.63-4-4-4-8V26.82c0-4,1.68-7.37,4-8Z"/><polyline class="cls-2" points="34.75 14.26 34.75 14.38 34.75 51.49 34.75 60.76 34.75 61.21"/></g></g></svg>