<svg id="Layer_2" data-name="Layer 2" xmlns="http://www.w3.org/2000/svg" viewBox="0 0 575.43 510.24"><defs><style>.cls-1{fill:#706f6f;}</style></defs><title>oferta-card</title><g id="Edit"><path class="cls-1" d="M431.56,510.24c-7.15,0-13.08-5.22-13.08-11.56V382.74c0-6.39,5.93-11.56,13.08-11.56H562.31c7.2,0,13.12,5.21,13.12,11.56V498.68c0,6.38-5.92,11.56-13.12,11.56Zm-209.26,0c-7.2,0-13.08-5.22-13.08-11.56V382.74c0-6.39,5.88-11.56,13.08-11.56H353.05c7.19,0,13.12,5.21,13.12,11.56V498.68c0,6.38-5.93,11.56-13.12,11.56Zm-209.22,0C5.88,510.24,0,505,0,498.68V382.73c0-6.38,5.88-11.55,13.08-11.55H143.83c7.19,0,13.07,5.21,13.07,11.56V498.68c0,6.38-5.88,11.56-13.07,11.56ZM431.56,324.71c-7.15,0-13.08-5.22-13.08-11.56v-116c0-6.42,5.93-11.64,13.08-11.64H562.31c7.2,0,13.12,5.22,13.12,11.64v116c0,6.38-5.92,11.56-13.12,11.56Zm-209.26,0c-7.2,0-13.08-5.22-13.08-11.56v-116c0-6.42,5.88-11.64,13.08-11.64H353.05c7.19,0,13.12,5.22,13.12,11.64v116c0,6.38-5.93,11.56-13.12,11.56Zm-209.22,0C5.88,324.71,0,319.49,0,313.15v-116c0-6.42,5.88-11.64,13.08-11.64H143.83c7.19,0,13.07,5.22,13.07,11.64v116c0,6.38-5.88,11.56-13.07,11.56ZM431.56,139.14c-7.15,0-13.08-5.22-13.08-11.56V11.64C418.48,5.22,424.41,0,431.56,0H562.31c7.2,0,13.12,5.22,13.12,11.64V127.58c0,6.34-5.92,11.56-13.12,11.56Zm-209.26,0c-7.2,0-13.08-5.22-13.08-11.56V11.64C209.22,5.22,215.1,0,222.3,0H353.05c7.19,0,13.12,5.22,13.12,11.64V127.58c0,6.34-5.93,11.56-13.12,11.56Zm-209.22,0C5.88,139.14,0,133.92,0,127.58V11.64C0,5.22,5.88,0,13.08,0H143.83C151,0,156.9,5.22,156.9,11.64V127.58c0,6.34-5.88,11.56-13.07,11.56Z" transform="translate(0 0)"/></g></svg>