<svg id="Layer_2" data-name="Layer 2" xmlns="http://www.w3.org/2000/svg" viewBox="0 0 575.43 510.24"><defs><style></style></defs><title>oferta-list</title><g id="Edit"><path class="cls-1" d="M148,148.22H10.29A10.3,10.3,0,0,1,0,137.92V10.29A10.29,10.29,0,0,1,10.29,0H148a10.3,10.3,0,0,1,10.3,10.29V137.92A10.3,10.3,0,0,1,148,148.22ZM51,110.11h56.34a10.29,10.29,0,0,0,10.29-10.29V48.4a10.3,10.3,0,0,0-10.29-10.3H51A10.3,10.3,0,0,0,40.71,48.4V99.82A10.29,10.29,0,0,0,51,110.11Z"/><rect class="cls-1" x="207.63" y="33.93" width="367.81" height="80.73"/><path class="cls-1" d="M148,330.36H10.29A10.3,10.3,0,0,1,0,320.06V192.43a10.29,10.29,0,0,1,10.29-10.29H148a10.3,10.3,0,0,1,10.3,10.29V320.06A10.3,10.3,0,0,1,148,330.36ZM51,292.25h56.34A10.29,10.29,0,0,0,117.63,282V230.54a10.3,10.3,0,0,0-10.29-10.3H51a10.3,10.3,0,0,0-10.29,10.3V282A10.29,10.29,0,0,0,51,292.25Z"/><rect class="cls-1" x="207.63" y="216.07" width="367.81" height="80.73"/><path class="cls-1" d="M148,510.24H10.29A10.3,10.3,0,0,1,0,499.94V372.31A10.29,10.29,0,0,1,10.29,362H148a10.3,10.3,0,0,1,10.3,10.29V499.94A10.3,10.3,0,0,1,148,510.24ZM51,472.13h56.34a10.29,10.29,0,0,0,10.29-10.29V410.42a10.3,10.3,0,0,0-10.29-10.3H51a10.3,10.3,0,0,0-10.29,10.3v51.42A10.29,10.29,0,0,0,51,472.13Z"/><rect class="cls-1" x="207.63" y="395.95" width="367.81" height="80.73"/></g></svg>