<svg id="Layer_2" data-name="Layer 2" xmlns="http://www.w3.org/2000/svg" viewBox="0 0 510.24 510.24"><defs><style>.cls-1{fill:#706f6f;}</style></defs><title>select</title><path id="Edit" class="cls-1" d="M287.49,0C146.6,0,32.37,114.22,32.37,255.12S146.6,510.24,287.49,510.24,542.61,396,542.61,255.12,428.39,0,287.49,0ZM428,204.3,301.58,330.71,287.4,344.89,282,350.3a18.43,18.43,0,0,1-26,0l-109-109a18.4,18.4,0,0,1,0-26l19.58-19.58a18.4,18.4,0,0,1,26,0l77.65,77.65L383.63,159.94a18.41,18.41,0,0,1,26,0L428,178.33A18.42,18.42,0,0,1,428,204.3Z" transform="translate(-32.37)"/></svg>