<svg xmlns="http://www.w3.org/2000/svg" viewBox="0 0 88 86.64"><defs><style>.cls-1{fill:none;stroke:#1d1d1b;stroke-miterlimit:10;}</style></defs><title>Asset 6</title><g id="Layer_2" data-name="Layer 2"><g id="Layer_2-2" data-name="Layer 2"><path class="cls-1" d="M77.7,60.47l-21,22.45a5.2,5.2,0,0,1-7.7,0L1.79,32.56a4.94,4.94,0,0,1-1.27-3.8L2.93,3.09,27,.52a4.26,4.26,0,0,1,3.56,1.36L77.7,52.24A6.1,6.1,0,0,1,77.7,60.47Z"/><ellipse class="cls-1" cx="21.35" cy="23.39" rx="6.83" ry="7.3"/><path class="cls-1" d="M40.78,3.87,86,52.14a5.77,5.77,0,0,1,0,7.78L61.29,86.3"/><line class="cls-1" x1="47.81" y1="38.48" x2="47.81" y2="62.61"/><ellipse class="cls-1" cx="39.55" cy="50.54" rx="3.08" ry="3.29"/><ellipse class="cls-1" cx="56.36" cy="50.54" rx="3.08" ry="3.29"/></g></g></svg>