<svg xmlns="http://www.w3.org/2000/svg" viewBox="0 0 80.31 102.34"><defs><style>.cls-1{fill:none;stroke:#1d1d1b;stroke-miterlimit:10;}</style></defs><title>Asset 14</title><g id="Layer_2" data-name="Layer 2"><g id="Layer_2-2" data-name="Layer 2"><path class="cls-1" d="M8.26,26.24h63.8a0,0,0,0,1,0,0V97.52a4.31,4.31,0,0,1-4.31,4.31H12.57a4.31,4.31,0,0,1-4.31-4.31V26.24A0,0,0,0,1,8.26,26.24Z"/><rect class="cls-1" x="0.5" y="13.19" width="79.31" height="12.83" rx="3.7"/><line class="cls-1" x1="30.32" y1="42.62" x2="30.32" y2="83.6"/><line class="cls-1" x1="50.79" y1="42.62" x2="50.79" y2="83.6"/><path class="cls-1" d="M38.46.5h3.65a3.7,3.7,0,0,1,3.7,3.7v9.12a0,0,0,0,1,0,0H34.76a0,0,0,0,1,0,0V4.2A3.7,3.7,0,0,1,38.46.5Z"/></g></g></svg>