<svg id="Layer_2" data-name="Layer 2" xmlns="http://www.w3.org/2000/svg" viewBox="0 0 441.87 510.24"><defs><style>.cls-1{fill:#706f6f;}</style></defs><title>trashcan</title><g id="Multimedia"><path class="cls-1" d="M452.42,66.21H398.27L391.8,24.6C389.69,11.07,375.54,0,360.36,0H213.07c-15.19,0-29.33,11.07-31.44,24.6l-6.47,41.61H121c-30.51,0-55.24,22.23-55.24,49.66v16.55H507.65V115.87C507.65,88.44,482.93,66.21,452.42,66.21ZM216.15,22.26H360.69l3.38,43.64H209.37Z" transform="translate(-65.78)"/><path class="cls-1" d="M461.62,146.08H111.81c-20.25,0-35.32,14.85-33.49,33l30.15,298.22c1.84,18.14,19.91,33,40.17,33H424.8c20.25,0,38.32-14.83,40.16-33l30.15-298.22C497,160.93,481.88,146.08,461.62,146.08ZM213.07,444H157.84L139.43,212.29h73.64Zm110.47,0H249.89V212.29h73.65Zm92,0H360.36V212.29H434Z" transform="translate(-65.78)"/></g></svg>