<svg xmlns="http://www.w3.org/2000/svg" width="33.73" height="33.722" viewBox="0 0 33.73 33.722">
  <path id="instagram-brands" d="M16.794,40.04a8.646,8.646,0,1,0,8.646,8.646A8.632,8.632,0,0,0,16.794,40.04Zm0,14.267a5.621,5.621,0,1,1,5.621-5.621,5.631,5.631,0,0,1-5.621,5.621ZM27.81,39.686a2.017,2.017,0,1,1-2.017-2.017A2.012,2.012,0,0,1,27.81,39.686Zm5.726,2.047a9.98,9.98,0,0,0-2.724-7.066,10.045,10.045,0,0,0-7.066-2.724c-2.784-.158-11.129-.158-13.913,0A10.031,10.031,0,0,0,2.767,34.66C.788,36.631.179,39.024.044,41.726c-.158,2.784-.158,11.129,0,13.913A9.98,9.98,0,0,0,2.767,62.7a10.058,10.058,0,0,0,7.066,2.724c2.784.158,11.129.158,13.913,0A9.98,9.98,0,0,0,30.812,62.7a10.045,10.045,0,0,0,2.724-7.066C33.694,52.855,33.694,44.517,33.536,41.733Zm-3.6,16.893a5.691,5.691,0,0,1-3.206,3.206c-2.22.88-7.487.677-9.94.677s-7.728.2-9.94-.677a5.691,5.691,0,0,1-3.206-3.206c-.88-2.22-.677-7.487-.677-9.94s-.2-7.728.677-9.94A5.691,5.691,0,0,1,6.853,35.54c2.22-.88,7.487-.677,9.94-.677s7.728-.2,9.94.677a5.691,5.691,0,0,1,3.206,3.206c.88,2.22.677,7.487.677,9.94S30.82,56.414,29.939,58.626Z" transform="translate(0.075 -31.825)" fill="#fff"/>
</svg>
