<svg xmlns="http://www.w3.org/2000/svg" width="36.864" height="29.941" viewBox="0 0 36.864 29.941">
  <path id="twitter-brands" d="M33.075,55.544c.023.327.023.655.023.982,0,9.988-7.6,21.5-21.5,21.5A21.351,21.351,0,0,1,0,74.631a15.632,15.632,0,0,0,1.825.094A15.131,15.131,0,0,0,11.2,71.5a7.569,7.569,0,0,1-7.064-5.24,9.529,9.529,0,0,0,1.427.117,7.991,7.991,0,0,0,1.988-.257A7.556,7.556,0,0,1,1.5,58.7v-.094a7.609,7.609,0,0,0,3.415.959A7.567,7.567,0,0,1,2.573,49.462a21.476,21.476,0,0,0,15.579,7.906,8.529,8.529,0,0,1-.187-1.731A7.563,7.563,0,0,1,31.04,50.468a14.875,14.875,0,0,0,4.8-1.825,7.535,7.535,0,0,1-3.322,4.164,15.146,15.146,0,0,0,4.351-1.17A16.241,16.241,0,0,1,33.075,55.544Z" transform="translate(0 -48.082)" fill="#fff"/>
</svg>
